<svg width="42" height="42" viewBox="0 0 42 42" fill="none" xmlns="http://www.w3.org/2000/svg">
<g clip-path="url(#clip0_13966_851)">
<path fill-rule="evenodd" clip-rule="evenodd" d="M5.38084 13.0043C6.89047 10.594 11.9519 9.74916 17.8497 11.1054C17.3573 11.6268 16.9814 12.2579 16.6972 12.8556C15.5011 12.6161 14.3547 12.4762 13.2868 12.4295C11.4895 12.3508 9.98731 12.5373 8.87682 12.8944C7.73819 13.2605 7.21415 13.7346 7.0169 14.0728C7.01622 14.074 7.0156 14.0752 7.01492 14.0764C5.69968 17.8321 14.9722 28.7745 16.6556 23.8148C16.7848 23.434 16.8033 23.1406 16.9159 22.7458C17.058 22.2477 17.2491 21.6903 17.5015 21.1722C17.7484 20.6652 18.0862 20.1285 18.5522 19.736C19.0837 19.2874 19.7617 19.0509 20.4565 19.0724C21.1512 19.0941 21.8142 19.3721 22.3174 19.8537C22.3213 19.8574 22.3254 19.8613 22.3292 19.8651C23.3861 20.9117 23.3704 22.5866 22.4665 23.6612C22.0751 24.1285 21.5401 24.4673 21.0345 24.7149C20.5017 24.9759 20.0238 25.0287 19.4188 25.3147C12.3981 28.6342 31.6423 34.5535 36.144 31.1457C36.4568 30.9088 36.5022 30.5076 36.472 30.2118C36.4491 30.0485 36.4186 29.8706 36.3777 29.6778C36.1299 28.5088 35.5743 27.0521 34.6759 25.4683C34.0755 24.4097 33.3342 23.3173 32.4564 22.2377C32.5104 21.9851 32.5464 21.7349 32.5688 21.4939C32.6379 20.7501 32.5911 19.9977 32.5082 19.3455C37.3652 24.4296 39.3352 30.3276 38.142 32.6076L38.1029 32.6787C36.3936 35.6454 26.0122 36.3864 17.0694 31.1754L16.8569 31.0504C7.79614 25.6605 3.20235 16.7379 5.32973 13.0891L5.38084 13.0043ZM20.3964 21.0143C20.1788 21.0076 19.9661 21.0819 19.7994 21.2227L19.7984 21.2237C19.6271 21.368 19.4335 21.6324 19.2423 22.025C19.0566 22.4064 18.9023 22.8473 18.7788 23.2801C18.7584 23.3516 18.7392 23.4225 18.7207 23.4921C18.7902 23.4736 18.861 23.4545 18.9323 23.434C19.364 23.3102 19.8037 23.1556 20.1841 22.9693C20.5755 22.7776 20.8393 22.5835 20.9832 22.4117L20.9852 22.4093C21.2843 22.0543 21.2531 21.5365 20.9729 21.253C20.8163 21.1061 20.6113 21.021 20.3964 21.0143Z" fill="white"/>
<path fill-rule="evenodd" clip-rule="evenodd" d="M34.0541 7.15062C34.5867 7.15393 35.017 7.58793 35.017 8.12208C35.017 10.5281 34.3457 14.716 30.0577 17.9012C30.1262 18.1982 30.2011 18.5738 30.254 18.9856C30.3168 19.4743 30.3526 20.0403 30.3008 20.5997C30.2497 21.1507 30.1072 21.7672 29.755 22.297L29.7542 22.2981C29.1542 23.1977 28.0324 23.7099 27.2703 23.9871C26.857 24.1374 26.4755 24.244 26.198 24.313C26.0586 24.3476 25.9435 24.3733 25.8617 24.3906C25.8208 24.3993 25.7879 24.4058 25.7644 24.4104C25.7527 24.4127 25.7431 24.4147 25.7361 24.416C25.7326 24.4166 25.7296 24.4171 25.7274 24.4176L25.7244 24.4182L25.7228 24.4186C25.4402 24.47 25.1489 24.3929 24.9284 24.2084C24.708 24.0238 24.5806 23.7505 24.5806 23.4625V19.6037L22.5985 17.616H18.7503C18.4631 17.616 18.1907 17.4882 18.0066 17.2671C17.8226 17.046 17.7457 16.7544 17.797 16.471L17.798 16.466C17.7984 16.4638 17.799 16.4608 17.7996 16.4573C17.8009 16.4503 17.8029 16.4407 17.8052 16.429C17.8097 16.4054 17.8163 16.3725 17.825 16.3315C17.8422 16.2495 17.8678 16.1341 17.9024 15.9944C17.9712 15.7161 18.0773 15.3333 18.2273 14.9187C18.5037 14.1545 19.0145 13.0298 19.9115 12.4281L19.9129 12.4273C20.4411 12.0742 21.0558 11.9312 21.6052 11.8799C22.163 11.8279 22.7275 11.8639 23.2149 11.9269C23.6295 11.9805 24.0074 12.0562 24.3048 12.1254C25.3382 10.6836 26.6811 9.48815 28.2382 8.6294L28.4058 8.53867C30.1444 7.61573 32.0849 7.13839 34.0541 7.15062ZM28.299 19.0034C27.72 19.3177 27.1256 19.6031 26.5182 19.8586V22.1928C26.5484 22.1822 26.5791 22.1716 26.6097 22.1605C27.3412 21.8944 27.9192 21.5541 28.1435 21.2179C28.2499 21.0573 28.3366 20.7963 28.3715 20.42C28.4057 20.0511 28.3842 19.6379 28.3323 19.234C28.3223 19.1557 28.3108 19.0786 28.299 19.0034ZM33.0327 9.1387C31.7343 9.26292 30.4698 9.64147 29.3123 10.256L29.172 10.3318C27.6805 11.1544 26.4236 12.3461 25.5209 13.7933C25.5191 13.7962 25.5172 13.7992 25.5154 13.8021C24.9849 14.6328 24.5247 15.5064 24.139 16.4131L25.7824 18.0611C26.6979 17.6752 27.5803 17.2141 28.4205 16.6822C31.8945 14.3411 32.8334 11.3001 33.0327 9.1387ZM22.9673 13.854C22.5644 13.8019 22.1525 13.7804 21.7845 13.8147C21.4092 13.8497 21.1489 13.9363 20.9887 14.0429C20.6534 14.2679 20.3143 14.8479 20.049 15.5813C20.0379 15.612 20.027 15.6427 20.0165 15.6731H22.3475C22.6055 15.0643 22.8939 14.4689 23.2116 13.8894C23.132 13.8767 23.0504 13.8647 22.9673 13.854Z" fill="white"/>
<path d="M34.5003 15.7393C39.1044 17.8891 42.0504 20.7492 42.182 22.6205C42.4174 25.9714 32.796 32.599 21.1499 32.6639L20.8773 32.6643C9.44174 32.6329 -0.152392 26.6353 0.0018339 22.9428L0.00738055 22.8554C0.117841 21.5502 1.30995 19.9294 3.31576 18.3737C3.4839 19.0572 3.72382 19.7052 3.96215 20.1994C3.64128 20.4701 3.35307 20.7376 3.09925 20.9995C2.12994 21.9994 1.85216 22.7063 1.82649 23.0093C1.81591 23.1351 1.90891 23.7138 2.85599 24.6977C3.73622 25.6122 5.11673 26.6184 6.9304 27.554C10.5496 29.4211 15.6244 30.869 21.1397 30.8383C26.6341 30.8076 31.6571 29.2242 35.2493 27.2706C37.0483 26.2921 38.4282 25.2534 39.3163 24.3292C39.7604 23.8671 40.0453 23.471 40.2066 23.1635C40.3526 22.8851 40.3596 22.7535 40.3605 22.7449C40.3466 22.585 40.1248 21.9534 39.1268 20.9569C38.1961 20.0276 36.8064 19.0001 35.0258 18.0437C34.4614 17.7405 33.8624 17.447 33.2323 17.1679C33.5143 16.8789 33.7875 16.586 34.0482 16.2896C34.2075 16.1084 34.3578 15.9246 34.5003 15.7393Z" fill="#000000"/>
<path d="M19.7795 1L20.6229 4.41643L24.0393 5.25983L20.6229 6.10324L19.7795 9.51967L18.9361 6.10324L15.5196 5.25983L18.9361 4.41643L19.7795 1Z" fill="#000000"/>
</g>
<defs>
<clipPath id="clip0_13966_851">
<rect width="42" height="42" fill="white"/>
</clipPath>
</defs>
</svg>
