<svg width="17" height="12" viewBox="0 0 17 12" fill="none" xmlns="http://www.w3.org/2000/svg">
<g clip-path="url(#clip0_5477_3309)">
<path d="M3.99986 10.2514C5.91922 9.61163 12.4943 10.5858 12.4003 11.0512C12.2472 11.7726 7.90361 10.2515 4.30357 11.0512C3.10344 11.3178 2.79671 10.6525 3.99986 10.2514Z" fill="white"/>
<path fill-rule="evenodd" clip-rule="evenodd" d="M8.19224 0.25824C8.45067 0.236323 8.71066 0.27192 8.95396 0.361755C9.19723 0.4516 9.4183 0.593178 9.60045 0.777771C9.81122 0.955126 9.96191 1.19402 10.0321 1.46039C10.1022 1.72666 10.088 2.00798 9.99205 2.26605C9.90947 2.46424 9.77418 2.636 9.60045 2.76215C9.51793 2.84855 9.42633 2.92671 9.32799 2.99457C9.37596 3.0665 9.43201 3.13045 9.49595 3.21039C10.0239 3.95427 10.744 5.19377 11.2001 5.85785C11.321 5.82371 11.4441 5.79691 11.5682 5.77777L12.9442 5.23383C12.8702 5.09441 12.8218 4.94296 12.8006 4.78656C12.7622 4.39184 12.8797 3.99732 13.1278 3.68793C13.3759 3.37865 13.7352 3.17853 14.1288 3.13031C14.3923 3.10032 14.6595 3.13002 14.91 3.21722C15.1605 3.30446 15.3881 3.44702 15.576 3.63422C15.7881 3.81414 15.9395 4.05549 16.0096 4.32465C16.0797 4.59366 16.0658 4.87769 15.9686 5.13812C15.8833 5.33474 15.7476 5.50579 15.576 5.63422C15.3606 5.79787 15.1165 5.92042 14.8563 5.99457C14.6486 6.06643 14.7362 5.94583 14.3368 5.94574C14.4022 6.32427 14.4022 6.71174 14.3368 7.09027C14.202 7.80506 14.0116 8.50826 13.7684 9.19379C13.5844 9.70579 13.2485 10.2824 13.0165 10.7944C12.8564 11.1461 12.4887 10.8101 12.6727 10.3461C12.8567 9.88229 13.0727 9.47439 13.2167 8.99457C13.4286 8.33381 13.5861 7.6565 13.6883 6.97015C13.7256 6.70486 13.7256 6.43564 13.6883 6.17035C13.6809 6.03791 13.6307 5.91104 13.5448 5.81C13.4888 5.882 13.2883 5.93011 13.2323 5.93011C12.9524 6.05804 12.5767 6.22587 12.3846 6.3139C12.1926 6.4019 11.9919 6.47433 11.7919 6.54633C11.5663 6.62898 11.3335 6.69031 11.0965 6.72992C11.0217 6.73578 10.9463 6.72259 10.8778 6.69183C10.8094 6.66108 10.7493 6.61392 10.704 6.55414C10.1999 5.866 9.12794 4.04988 8.53599 3.35394C7.80008 4.15387 6.17695 6.37753 6.0565 6.55414C6.01547 6.61256 5.95975 6.65905 5.89537 6.68988C5.83091 6.72071 5.75963 6.73465 5.68834 6.72992C5.41752 6.70505 5.14961 6.65472 4.88853 6.57855C4.40071 6.35484 3.90125 6.15645 3.39244 5.98578C3.24712 5.95775 3.09972 5.93938 2.95201 5.93011C2.82464 6.00779 2.69116 6.07502 2.5526 6.13031C2.56062 6.3143 2.60826 6.57866 2.60826 6.65863L2.6483 7.4184L2.93638 8.61859L3.21666 9.67426C3.24854 10.0579 2.85703 10.1699 2.75279 9.8266L2.43248 8.74652L2.08873 7.54633L1.9442 6.74652V6.19379C1.76422 6.2281 1.57927 6.22593 1.40025 6.18695C1.22118 6.14794 1.05164 6.07332 0.902205 5.96722C0.752761 5.86112 0.626005 5.72597 0.530134 5.56976C0.434275 5.41357 0.371528 5.23932 0.344587 5.05804C0.297124 4.6573 0.410247 4.25371 0.65904 3.93597C0.90784 3.61846 1.27242 3.41175 1.67271 3.36176C1.93629 3.33177 2.20343 3.36147 2.45396 3.44867C2.70443 3.53585 2.93202 3.67856 3.11998 3.86566C3.32064 4.04321 3.46411 4.27714 3.53111 4.53656C3.59809 4.79591 3.58548 5.06927 3.49595 5.32172C4.03865 5.47111 4.57337 5.65018 5.09654 5.85785L5.48814 5.9223C5.88813 5.37832 7.02395 3.77799 7.70396 2.97797C7.47804 2.89551 7.27857 2.75322 7.12779 2.56586C6.97699 2.37842 6.88066 2.1529 6.84849 1.91449C6.81032 1.5173 6.93005 1.1208 7.1815 0.810974C7.43293 0.501239 7.79578 0.302628 8.19224 0.25824ZM1.86412 4.21039C1.66138 4.20994 1.46571 4.28618 1.31724 4.42426C1.16881 4.56237 1.07851 4.75227 1.06431 4.95453C1.11264 6.24998 2.82454 5.3941 2.88853 5.13812C2.92211 5.01533 2.9186 4.88501 2.87877 4.7641C2.83891 4.64328 2.76386 4.53718 2.66392 4.45844C2.55777 4.35996 2.43111 4.28652 2.29283 4.24359C2.15436 4.20067 2.00753 4.18918 1.86412 4.21039ZM14.3045 3.97797C14.103 3.97732 13.9089 4.05344 13.7606 4.18988C13.6123 4.32633 13.5209 4.5134 13.5047 4.71429C13.5483 4.87548 13.6316 5.02323 13.7469 5.14398C13.8623 5.26471 14.0059 5.3548 14.1649 5.4057C14.3239 5.45657 14.4931 5.46724 14.6571 5.43597C14.8212 5.4046 14.9752 5.33204 15.1044 5.22601C15.2133 5.1429 15.2947 5.02829 15.3368 4.89789V4.9057C15.3628 4.77635 15.3494 4.64216 15.2997 4.51996C15.2499 4.39769 15.1655 4.29263 15.0565 4.2182C14.956 4.12637 14.8366 4.05749 14.7069 4.01605C14.5772 3.97465 14.4397 3.96137 14.3045 3.97797ZM8.36802 1.1225C8.1666 1.12193 7.97232 1.19705 7.82408 1.33344C7.67586 1.46982 7.5844 1.65708 7.56822 1.85785C7.60002 2.8515 9.17229 2.37662 9.19224 2.37054C9.30358 2.28981 9.38559 2.17427 9.42467 2.04242C9.44892 1.91162 9.43208 1.77617 9.37779 1.65472C9.32349 1.53338 9.23355 1.43086 9.11998 1.36176C9.01946 1.27002 8.90001 1.20098 8.77037 1.15961C8.64064 1.11825 8.50317 1.10587 8.36802 1.1225Z" fill="white"/>
</g>
<defs>
<clipPath id="clip0_5477_3309">
<rect width="16.8" height="12" fill="white"/>
</clipPath>
</defs>
</svg>
