<svg width="534" height="170" viewBox="0 0 534 170" fill="none" xmlns="http://www.w3.org/2000/svg">
<path d="M238.926 96.1223H228.769L243.942 52.1111H257.577L272.534 96.1223H262.162L249.744 55.2658H251.56L238.926 96.1223ZM237.695 86.4429V78.5024H264.717V86.4429H237.695Z" fill="white"/>
<path d="M287.531 52.1111V96.1223H277.806V52.1111H287.531Z" fill="white"/>
<path d="M307.828 52.1111H317.554V88.6127L316.815 87.8433H337.559V96.1223H307.828V52.1111Z" fill="white"/>
<path d="M344.311 74.6245C344.311 72.5727 344.686 70.721 345.435 69.0693C346.194 67.4176 347.276 66.0172 348.682 64.8682C350.097 63.7089 351.811 62.8215 353.821 62.206C355.842 61.5802 358.11 61.2673 360.623 61.2673C363.219 61.2673 365.532 61.6007 367.563 62.2675C369.605 62.9344 371.328 63.8987 372.734 65.1606C374.15 66.4122 375.232 67.951 375.981 69.7771C376.73 71.6032 377.104 73.6756 377.104 75.9941V96.1223H367.886V87.2585H367.933C367.686 88.2639 367.348 89.2077 366.917 90.09C366.486 90.962 365.973 91.7622 365.378 92.4906C364.783 93.2087 364.106 93.8499 363.347 94.4142C362.598 94.9784 361.782 95.4606 360.9 95.8607C360.018 96.2505 359.069 96.5429 358.053 96.7378C357.038 96.943 355.976 97.0456 354.868 97.0456C353.134 97.0456 351.554 96.8045 350.128 96.3224C348.712 95.8504 347.497 95.1785 346.481 94.3065C345.476 93.4242 344.696 92.3675 344.142 91.1364C343.588 89.8951 343.311 88.5255 343.311 87.0277C343.311 85.417 343.629 83.9808 344.265 82.7189C344.911 81.4468 345.835 80.3696 347.035 79.4873C348.246 78.605 349.723 77.9331 351.467 77.4714C353.211 77.0098 355.191 76.7789 357.407 76.7789H368.117V82.3803H358.361C357.407 82.3803 356.566 82.4624 355.837 82.6266C355.119 82.7805 354.514 83.0215 354.021 83.3498C353.529 83.6679 353.155 84.0628 352.898 84.5347C352.652 85.0067 352.529 85.5555 352.529 86.1813C352.529 86.8174 352.662 87.3868 352.929 87.8894C353.196 88.3819 353.58 88.7974 354.083 89.1359C354.586 89.4745 355.206 89.7361 355.945 89.9207C356.694 90.0951 357.545 90.1823 358.499 90.1823C359.402 90.1823 360.259 90.1054 361.069 89.9515C361.88 89.7976 362.634 89.5771 363.331 89.2898C364.029 89.0025 364.655 88.6589 365.209 88.2588C365.773 87.8484 366.255 87.3919 366.655 86.8892C367.055 86.3762 367.358 85.8274 367.563 85.2426C367.779 84.6579 367.886 84.0372 367.886 83.3806V75.9941C367.886 74.8246 367.717 73.7782 367.379 72.8549C367.04 71.9315 366.553 71.1519 365.917 70.5158C365.281 69.8695 364.496 69.377 363.562 69.0385C362.639 68.6999 361.587 68.5307 360.408 68.5307C359.218 68.5307 358.187 68.6743 357.315 68.9616C356.453 69.2385 355.74 69.6386 355.176 70.1619C354.611 70.6851 354.191 71.3263 353.914 72.0854C353.637 72.8343 353.498 73.6807 353.498 74.6245H344.311Z" fill="white"/>
<path d="M407.017 79.9951V62.1906H416.234V96.1223H407.017V85.7504L407.063 85.7043C406.714 87.5406 406.191 89.1667 405.493 90.5824C404.806 91.9879 403.954 93.1677 402.939 94.1218C401.923 95.0759 400.759 95.7991 399.445 96.2916C398.132 96.7943 396.681 97.0456 395.091 97.0456C393.264 97.0456 391.649 96.7173 390.243 96.0607C388.838 95.4042 387.663 94.4347 386.719 93.1523C385.775 91.8699 385.057 90.2901 384.565 88.4127C384.072 86.525 383.826 84.3552 383.826 81.9033V62.1906H393.044V80.3645C393.044 81.811 393.177 83.078 393.444 84.1654C393.721 85.2426 394.131 86.1403 394.675 86.8584C395.229 87.5765 395.916 88.1151 396.737 88.4742C397.568 88.8333 398.538 89.0128 399.646 89.0128C400.425 89.0128 401.148 88.9256 401.815 88.7512C402.482 88.5768 403.087 88.3203 403.631 87.9818C404.185 87.633 404.672 87.2072 405.093 86.7045C405.514 86.1916 405.862 85.6017 406.139 84.9348C406.427 84.2577 406.642 83.5088 406.786 82.6881C406.94 81.8674 407.017 80.9697 407.017 79.9951Z" fill="white"/>
<path d="M432.463 78.3178V96.1223H423.245V62.1906H432.463V72.5625L432.416 72.6086C432.765 70.7723 433.283 69.1513 433.971 67.7459C434.668 66.3301 435.525 65.1452 436.54 64.1911C437.556 63.237 438.721 62.5138 440.034 62.0213C441.347 61.5186 442.798 61.2673 444.389 61.2673C446.215 61.2673 447.831 61.5956 449.236 62.2522C450.641 62.9087 451.816 63.8782 452.76 65.1606C453.704 66.443 454.422 68.028 454.914 69.9156C455.407 71.793 455.653 73.9577 455.653 76.4096V96.1223H446.435V77.9485C446.435 76.5019 446.297 75.2401 446.02 74.1629C445.753 73.0754 445.343 72.1726 444.789 71.4545C444.245 70.7364 443.558 70.1978 442.727 69.8387C441.906 69.4796 440.942 69.3001 439.834 69.3001C439.054 69.3001 438.331 69.3873 437.664 69.5617C436.997 69.7361 436.387 69.9977 435.833 70.3465C435.289 70.6851 434.807 71.1108 434.386 71.6238C433.965 72.1265 433.612 72.7164 433.324 73.3934C433.047 74.0603 432.832 74.8041 432.678 75.6248C432.534 76.4455 432.463 77.3432 432.463 78.3178Z" fill="white"/>
<path d="M471.081 79.1488C471.081 80.7184 471.261 82.1187 471.62 83.3498C471.979 84.5706 472.497 85.6017 473.174 86.4429C473.851 87.2842 474.682 87.9253 475.667 88.3665C476.652 88.7974 477.77 89.0128 479.021 89.0128C480.068 89.0128 480.991 88.8589 481.791 88.5511C482.602 88.2434 483.294 87.8125 483.869 87.2585C484.454 86.6943 484.931 86.0274 485.3 85.258C485.669 84.4886 485.941 83.6422 486.116 82.7189H495.303C495.026 84.822 494.446 86.7507 493.564 88.505C492.692 90.2593 491.553 91.7674 490.147 93.0292C488.752 94.2911 487.116 95.2759 485.238 95.9838C483.361 96.6917 481.284 97.0456 479.006 97.0456C477.313 97.0456 475.713 96.8558 474.205 96.4762C472.697 96.0967 471.307 95.5427 470.035 94.8143C468.762 94.0859 467.619 93.2036 466.603 92.1674C465.587 91.121 464.72 89.9361 464.002 88.6127C463.294 87.279 462.751 85.8222 462.371 84.2424C461.991 82.6522 461.802 80.9543 461.802 79.1488C461.802 77.3432 461.991 75.6504 462.371 74.0705C462.751 72.4804 463.294 71.0236 464.002 69.7002C464.72 68.3768 465.587 67.1919 466.603 66.1455C467.619 65.099 468.762 64.2168 470.035 63.4986C471.307 62.7702 472.697 62.2162 474.205 61.8367C475.713 61.4571 477.313 61.2673 479.006 61.2673C481.284 61.2673 483.361 61.6212 485.238 62.3291C487.116 63.037 488.752 64.0218 490.147 65.2837C491.553 66.5456 492.692 68.0536 493.564 69.8079C494.446 71.5622 495.026 73.4909 495.303 75.594H486.116C485.941 74.6707 485.669 73.8243 485.3 73.0549C484.931 72.2752 484.454 71.6084 483.869 71.0544C483.294 70.5004 482.602 70.0695 481.791 69.7618C480.991 69.454 480.068 69.3001 479.021 69.3001C477.77 69.3001 476.652 69.5207 475.667 69.9618C474.682 70.3927 473.851 71.0287 473.174 71.87C472.497 72.701 471.979 73.732 471.62 74.9631C471.261 76.1839 471.081 77.5791 471.081 79.1488Z" fill="white"/>
<path d="M510.812 78.3178V96.1223H501.594V50.5723H510.812V72.5625L510.766 72.6086C511.114 70.7723 511.632 69.1513 512.32 67.7459C513.017 66.3301 513.874 65.1452 514.89 64.1911C515.905 63.237 517.07 62.5138 518.383 62.0213C519.696 61.5186 521.148 61.2673 522.738 61.2673C524.564 61.2673 526.18 61.5956 527.585 62.2522C528.991 62.9087 530.165 63.8782 531.109 65.1606C532.053 66.443 532.771 68.028 533.264 69.9156C533.756 71.793 534.002 73.9577 534.002 76.4096V96.1223H524.785V77.9485C524.785 76.5019 524.646 75.2401 524.369 74.1629C524.102 73.0754 523.692 72.1726 523.138 71.4545C522.594 70.7364 521.907 70.1978 521.076 69.8387C520.255 69.4796 519.291 69.3001 518.183 69.3001C517.403 69.3001 516.68 69.3873 516.013 69.5617C515.346 69.7361 514.736 69.9977 514.182 70.3465C513.638 70.6851 513.156 71.1108 512.735 71.6238C512.315 72.1265 511.961 72.7164 511.673 73.3934C511.396 74.0603 511.181 74.8041 511.027 75.6248C510.884 76.4455 510.812 77.3432 510.812 78.3178Z" fill="white"/>
<path d="M249.097 113.36C251.919 113.36 254.458 113.699 256.715 114.376C258.982 115.053 260.906 116.033 262.485 117.315C264.076 118.587 265.296 120.142 266.148 121.978C266.999 123.804 267.425 125.866 267.425 128.164H258.1C258.1 127.108 257.879 126.153 257.438 125.302C257.007 124.45 256.392 123.727 255.591 123.132C254.791 122.537 253.827 122.081 252.698 121.763C251.58 121.434 250.339 121.27 248.974 121.27C248.205 121.27 247.451 121.321 246.712 121.424C245.984 121.527 245.291 121.681 244.635 121.886C243.978 122.091 243.368 122.347 242.804 122.655C242.25 122.963 241.773 123.322 241.372 123.732C240.972 124.143 240.654 124.609 240.418 125.133C240.193 125.646 240.08 126.21 240.08 126.825C240.08 127.41 240.177 127.918 240.372 128.349C240.567 128.78 240.849 129.154 241.219 129.472C241.598 129.79 242.065 130.067 242.619 130.303C243.173 130.529 243.819 130.729 244.558 130.903C245.296 131.078 246.117 131.242 247.02 131.396C247.923 131.55 248.913 131.704 249.99 131.857L251.775 132.119C253.006 132.293 254.283 132.499 255.607 132.735C256.93 132.96 258.223 133.268 259.485 133.658C260.757 134.038 261.962 134.525 263.101 135.12C264.24 135.705 265.24 136.448 266.102 137.351C266.964 138.244 267.646 139.326 268.148 140.598C268.651 141.87 268.902 143.373 268.902 145.107C268.902 147.426 268.441 149.462 267.518 151.216C266.604 152.971 265.302 154.443 263.609 155.633C261.926 156.813 259.89 157.705 257.5 158.31C255.109 158.916 252.442 159.218 249.498 159.218C246.328 159.218 243.511 158.875 241.049 158.187C238.597 157.5 236.53 156.505 234.848 155.202C233.175 153.899 231.903 152.309 231.031 150.431C230.17 148.544 229.739 146.405 229.739 144.014H239.064C239.064 145.153 239.305 146.174 239.787 147.077C240.27 147.98 240.957 148.744 241.849 149.37C242.742 149.995 243.824 150.478 245.096 150.816C246.379 151.144 247.82 151.309 249.421 151.309C250.795 151.309 252.078 151.185 253.268 150.939C254.468 150.683 255.509 150.308 256.392 149.816C257.284 149.313 257.987 148.687 258.5 147.938C259.013 147.19 259.269 146.312 259.269 145.307C259.269 144.671 259.172 144.122 258.977 143.66C258.782 143.189 258.495 142.783 258.115 142.445C257.746 142.096 257.284 141.804 256.73 141.568C256.186 141.332 255.555 141.132 254.837 140.967C254.129 140.793 253.345 140.639 252.483 140.506C251.621 140.362 250.688 140.219 249.682 140.075L247.359 139.736C246.148 139.572 244.886 139.382 243.573 139.167C242.27 138.952 240.993 138.669 239.741 138.321C238.49 137.962 237.3 137.505 236.171 136.951C235.053 136.387 234.068 135.674 233.216 134.812C232.375 133.95 231.703 132.914 231.201 131.704C230.698 130.493 230.447 129.052 230.447 127.379C230.447 125.861 230.662 124.461 231.093 123.178C231.524 121.886 232.134 120.721 232.924 119.685C233.724 118.639 234.684 117.726 235.802 116.946C236.93 116.156 238.182 115.499 239.557 114.976C240.942 114.443 242.434 114.043 244.035 113.776C245.645 113.499 247.333 113.36 249.097 113.36Z" fill="white"/>
<path d="M284.165 124.363V134.827L284.118 134.858C284.488 133.053 285.016 131.442 285.703 130.026C286.391 128.611 287.217 127.415 288.181 126.441C289.156 125.466 290.264 124.722 291.505 124.209C292.756 123.696 294.116 123.44 295.583 123.44C296.927 123.44 298.199 123.64 299.399 124.04C300.599 124.43 301.707 124.994 302.723 125.733C303.739 126.471 304.652 127.374 305.462 128.441C306.283 129.498 306.975 130.688 307.54 132.011C308.104 133.335 308.535 134.781 308.832 136.351C309.14 137.91 309.294 139.567 309.294 141.321C309.294 143.076 309.14 144.738 308.832 146.307C308.535 147.867 308.104 149.313 307.54 150.647C306.975 151.97 306.283 153.16 305.462 154.217C304.652 155.274 303.739 156.176 302.723 156.925C301.707 157.664 300.599 158.228 299.399 158.618C298.199 159.018 296.927 159.218 295.583 159.218C294.116 159.218 292.756 158.962 291.505 158.449C290.264 157.936 289.156 157.192 288.181 156.218C287.217 155.243 286.391 154.048 285.703 152.632C285.016 151.206 284.488 149.59 284.118 147.785L284.165 147.831V169.929H274.947V124.363H284.165ZM284.165 141.321C284.165 142.378 284.241 143.358 284.395 144.261C284.559 145.163 284.795 145.984 285.103 146.723C285.411 147.461 285.791 148.118 286.242 148.693C286.704 149.257 287.232 149.734 287.827 150.124C288.422 150.503 289.079 150.79 289.797 150.985C290.525 151.18 291.31 151.278 292.151 151.278C293.444 151.278 294.577 151.067 295.552 150.647C296.537 150.226 297.358 149.595 298.014 148.754C298.671 147.913 299.168 146.872 299.507 145.63C299.845 144.389 300.015 142.953 300.015 141.321C300.015 139.69 299.845 138.254 299.507 137.013C299.179 135.771 298.681 134.735 298.014 133.904C297.358 133.063 296.537 132.432 295.552 132.011C294.577 131.591 293.444 131.38 292.151 131.38C291.31 131.38 290.525 131.478 289.797 131.673C289.079 131.868 288.422 132.16 287.827 132.55C287.232 132.93 286.704 133.401 286.242 133.966C285.791 134.53 285.411 135.181 285.103 135.92C284.795 136.659 284.559 137.479 284.395 138.382C284.241 139.285 284.165 140.265 284.165 141.321Z" fill="white"/>
<path d="M315.371 136.797C315.371 134.745 315.745 132.894 316.494 131.242C317.253 129.59 318.335 128.19 319.741 127.041C321.157 125.882 322.87 124.994 324.881 124.379C326.902 123.753 329.169 123.44 331.682 123.44C334.278 123.44 336.591 123.773 338.623 124.44C340.664 125.107 342.388 126.071 343.793 127.333C345.209 128.585 346.291 130.124 347.04 131.95C347.789 133.776 348.163 135.848 348.163 138.167V158.295H338.946V149.431H338.992C338.746 150.437 338.407 151.38 337.976 152.263C337.545 153.135 337.032 153.935 336.437 154.663C335.842 155.381 335.165 156.023 334.406 156.587C333.657 157.151 332.842 157.633 331.959 158.033C331.077 158.423 330.128 158.716 329.112 158.911C328.097 159.116 327.035 159.218 325.927 159.218C324.193 159.218 322.613 158.977 321.187 158.495C319.772 158.023 318.556 157.351 317.54 156.479C316.535 155.597 315.755 154.54 315.201 153.309C314.647 152.068 314.37 150.698 314.37 149.2C314.37 147.59 314.688 146.153 315.324 144.892C315.971 143.619 316.894 142.542 318.094 141.66C319.305 140.778 320.782 140.106 322.526 139.644C324.27 139.182 326.25 138.952 328.466 138.952H339.177V144.553H329.42C328.466 144.553 327.625 144.635 326.897 144.799C326.178 144.953 325.573 145.194 325.081 145.522C324.588 145.841 324.214 146.235 323.957 146.707C323.711 147.179 323.588 147.728 323.588 148.354C323.588 148.99 323.721 149.559 323.988 150.062C324.255 150.555 324.64 150.97 325.142 151.309C325.645 151.647 326.266 151.909 327.004 152.093C327.753 152.268 328.605 152.355 329.559 152.355C330.462 152.355 331.318 152.278 332.129 152.124C332.939 151.97 333.693 151.75 334.391 151.462C335.088 151.175 335.714 150.832 336.268 150.431C336.832 150.021 337.315 149.565 337.715 149.062C338.115 148.549 338.417 148 338.623 147.415C338.838 146.831 338.946 146.21 338.946 145.553V138.167C338.946 136.997 338.776 135.951 338.438 135.028C338.099 134.104 337.612 133.325 336.976 132.688C336.34 132.042 335.555 131.55 334.622 131.211C333.698 130.873 332.647 130.703 331.467 130.703C330.277 130.703 329.246 130.847 328.374 131.134C327.512 131.411 326.799 131.811 326.235 132.335C325.671 132.858 325.25 133.499 324.973 134.258C324.696 135.007 324.557 135.853 324.557 136.797H315.371Z" fill="white"/>
<path d="M363.611 141.321C363.611 142.891 363.79 144.291 364.149 145.522C364.508 146.743 365.026 147.774 365.704 148.616C366.381 149.457 367.212 150.098 368.196 150.539C369.181 150.97 370.3 151.185 371.551 151.185C372.598 151.185 373.521 151.032 374.321 150.724C375.132 150.416 375.824 149.985 376.399 149.431C376.983 148.867 377.46 148.2 377.83 147.431C378.199 146.661 378.471 145.815 378.645 144.892H387.832C387.555 146.995 386.976 148.923 386.093 150.678C385.221 152.432 384.083 153.94 382.677 155.202C381.282 156.464 379.646 157.449 377.768 158.156C375.891 158.864 373.813 159.218 371.536 159.218C369.843 159.218 368.243 159.028 366.735 158.649C365.226 158.269 363.836 157.715 362.564 156.987C361.292 156.259 360.148 155.376 359.133 154.34C358.117 153.294 357.25 152.109 356.532 150.785C355.824 149.452 355.28 147.995 354.901 146.415C354.521 144.825 354.331 143.127 354.331 141.321C354.331 139.516 354.521 137.823 354.901 136.243C355.28 134.653 355.824 133.196 356.532 131.873C357.25 130.549 358.117 129.365 359.133 128.318C360.148 127.272 361.292 126.389 362.564 125.671C363.836 124.943 365.226 124.389 366.735 124.009C368.243 123.63 369.843 123.44 371.536 123.44C373.813 123.44 375.891 123.794 377.768 124.502C379.646 125.21 381.282 126.195 382.677 127.456C384.083 128.718 385.221 130.226 386.093 131.981C386.976 133.735 387.555 135.664 387.832 137.767H378.645C378.471 136.843 378.199 135.997 377.83 135.228C377.46 134.448 376.983 133.781 376.399 133.227C375.824 132.673 375.132 132.242 374.321 131.934C373.521 131.627 372.598 131.473 371.551 131.473C370.3 131.473 369.181 131.693 368.196 132.134C367.212 132.565 366.381 133.201 365.704 134.043C365.026 134.874 364.508 135.905 364.149 137.136C363.79 138.357 363.611 139.752 363.611 141.321Z" fill="white"/>
<path d="M402.218 141.937C402.218 143.476 402.413 144.861 402.803 146.092C403.203 147.313 403.772 148.349 404.511 149.2C405.25 150.052 406.147 150.708 407.204 151.17C408.271 151.621 409.476 151.847 410.82 151.847C411.713 151.847 412.534 151.745 413.282 151.539C414.042 151.324 414.724 151.006 415.329 150.585C415.945 150.154 416.488 149.626 416.96 149C417.442 148.364 417.848 147.631 418.176 146.8H426.84C426.378 148.728 425.655 150.462 424.67 152.001C423.685 153.54 422.49 154.843 421.084 155.91C419.689 156.977 418.099 157.792 416.314 158.357C414.539 158.931 412.621 159.218 410.559 159.218C407.994 159.218 405.66 158.787 403.557 157.926C401.454 157.064 399.648 155.848 398.14 154.279C396.642 152.699 395.478 150.811 394.647 148.616C393.826 146.41 393.416 143.968 393.416 141.291C393.416 138.634 393.821 136.207 394.632 134.012C395.452 131.816 396.606 129.939 398.094 128.38C399.582 126.81 401.367 125.594 403.449 124.733C405.532 123.871 407.84 123.44 410.374 123.44C412.877 123.44 415.15 123.866 417.191 124.717C419.243 125.558 420.992 126.759 422.439 128.318C423.895 129.867 425.019 131.74 425.809 133.935C426.599 136.12 426.994 138.557 426.994 141.244C426.994 141.655 426.983 142.07 426.963 142.491C426.942 142.901 426.912 143.322 426.87 143.753H399.125V138.059H422.008L418.268 143.66C418.309 143.26 418.335 142.865 418.345 142.476C418.366 142.075 418.376 141.686 418.376 141.306C418.376 139.562 418.202 138.033 417.853 136.72C417.514 135.397 417.012 134.289 416.345 133.396C415.678 132.504 414.847 131.832 413.852 131.38C412.867 130.919 411.723 130.688 410.42 130.688C409.128 130.688 407.973 130.914 406.958 131.365C405.942 131.816 405.08 132.473 404.372 133.335C403.675 134.186 403.141 135.233 402.772 136.474C402.403 137.715 402.218 139.121 402.218 140.69V141.937Z" fill="white"/>
<path fill-rule="evenodd" clip-rule="evenodd" d="M27.0187 59.1794C34.4608 47.2971 59.4124 43.1321 88.4874 49.818C86.0601 52.3883 84.2067 55.4997 82.8058 58.446C76.9093 57.2657 71.2576 56.5758 65.9933 56.3454C57.1328 55.9576 49.7275 56.877 44.253 58.6374C38.6398 60.4425 36.0565 62.7794 35.0841 64.4469C35.0807 64.4527 35.0777 64.4587 35.0743 64.4645C28.5905 82.9792 74.3018 136.923 82.6007 112.472C83.2378 110.595 83.3287 109.149 83.8839 107.203C84.5844 104.747 85.5264 101.999 86.7706 99.445C87.9881 96.9455 89.6531 94.3 91.9503 92.3649C94.5707 90.1533 97.9132 88.9876 101.338 89.0934C104.763 89.2004 108.032 90.5709 110.512 92.945C110.531 92.9636 110.551 92.9827 110.57 93.0016C115.78 98.1608 115.703 106.418 111.247 111.715C109.318 114.019 106.68 115.689 104.188 116.91C101.561 118.196 99.2052 118.457 96.2228 119.867C61.612 136.231 156.482 165.412 178.674 148.612C180.216 147.445 180.44 145.467 180.291 144.008C180.178 143.203 180.028 142.326 179.826 141.376C178.605 135.613 175.866 128.432 171.437 120.624C168.477 115.405 164.822 110.02 160.495 104.698C160.761 103.453 160.938 102.219 161.049 101.031C161.39 97.3644 161.159 93.655 160.75 90.4401C184.694 115.503 194.406 144.579 188.524 155.819L188.331 156.17C179.904 170.795 128.726 174.447 84.6407 148.758L83.5929 148.142C38.9255 121.571 16.2792 77.5851 26.7667 59.5973L27.0187 59.1794ZM101.042 98.6667C99.969 98.6338 98.9205 98.9998 98.0987 99.694L98.0938 99.6989C97.2493 100.41 96.2952 101.714 95.3526 103.649C94.4369 105.529 93.6761 107.703 93.0675 109.837C92.967 110.189 92.8722 110.538 92.7813 110.882C93.1237 110.79 93.4726 110.696 93.8243 110.595C95.9523 109.985 98.1201 109.223 99.9952 108.304C101.925 107.359 103.225 106.402 103.935 105.555L103.944 105.544C105.419 103.794 105.265 101.241 103.884 99.8434C103.112 99.1193 102.102 98.6998 101.042 98.6667Z" fill="white"/>
<path fill-rule="evenodd" clip-rule="evenodd" d="M168.371 30.3219C170.997 30.3383 173.118 32.4778 173.118 35.111C173.118 46.9719 169.809 67.6177 148.67 83.32C149.008 84.7838 149.377 86.6354 149.638 88.6657C149.947 91.0749 150.124 93.8652 149.868 96.6227C149.616 99.339 148.914 102.379 147.178 104.99L147.174 104.996C144.216 109.431 138.686 111.955 134.929 113.322C132.891 114.063 131.01 114.588 129.643 114.928C128.955 115.099 128.388 115.226 127.984 115.311C127.783 115.354 127.621 115.386 127.505 115.409C127.447 115.42 127.4 115.43 127.365 115.436C127.348 115.439 127.334 115.442 127.322 115.444L127.308 115.447L127.3 115.449C125.907 115.702 124.471 115.323 123.384 114.413C122.297 113.503 121.669 112.156 121.669 110.736V91.7126L111.898 81.9137H92.9269C91.5111 81.9136 90.1682 81.2839 89.2608 80.194C88.3536 79.104 87.9748 77.6662 88.2276 76.2692L88.2325 76.2448C88.2346 76.2336 88.2371 76.2189 88.2403 76.2018C88.2468 76.1672 88.2564 76.1201 88.2677 76.0622C88.2903 75.946 88.3228 75.7837 88.3653 75.5817C88.4504 75.1772 88.5768 74.6085 88.7472 73.9196C89.0865 72.5479 89.6095 70.6605 90.3487 68.6169C91.7116 64.8495 94.2295 59.305 98.6515 56.3385L98.6583 56.3346C101.262 54.5939 104.292 53.8889 107.001 53.6364C109.751 53.3801 112.534 53.5573 114.937 53.8678C116.981 54.132 118.843 54.5052 120.31 54.8463C125.404 47.7388 132.024 41.8454 139.7 37.612L140.526 37.1647C149.097 32.6148 158.664 30.2617 168.371 30.3219ZM140 88.7536C137.145 90.3027 134.215 91.71 131.221 92.9694V104.476C131.37 104.424 131.521 104.372 131.672 104.317C135.278 103.005 138.128 101.328 139.233 99.6706C139.758 98.8786 140.186 97.5922 140.358 95.737C140.526 93.9181 140.42 91.8816 140.164 89.8903C140.115 89.5044 140.058 89.1241 140 88.7536ZM163.336 40.1227C156.935 40.7351 150.702 42.6012 144.995 45.6305L144.304 46.0045C136.951 50.0597 130.754 55.9345 126.305 63.069C126.296 63.0833 126.286 63.0978 126.277 63.112C123.662 67.2073 121.394 71.5138 119.492 75.984L127.594 84.1081C132.107 82.2057 136.457 79.9325 140.599 77.3102C157.725 65.7695 162.353 50.7778 163.336 40.1227ZM113.716 63.3678C111.73 63.1112 109.699 63.0054 107.885 63.1745C106.035 63.347 104.752 63.7738 103.962 64.2995C102.309 65.4085 100.637 68.2675 99.3292 71.8835C99.2745 72.0348 99.221 72.1862 99.169 72.3356H110.66C111.932 69.3345 113.354 66.3994 114.92 63.5426C114.528 63.4801 114.125 63.4208 113.716 63.3678Z" fill="white"/>
<path d="M170.571 72.6592C193.268 83.2575 207.791 97.3573 208.44 106.582C209.6 123.101 162.169 155.774 104.756 156.094L103.412 156.096C47.0379 155.941 -0.258954 126.374 0.501343 108.171L0.528687 107.74C1.07323 101.306 6.95005 93.3156 16.8383 85.6465C17.6671 89.0159 18.8499 92.2103 20.0248 94.6465C18.443 95.981 17.0222 97.3001 15.7709 98.5908C10.9924 103.52 9.62303 107.005 9.49646 108.499C9.44433 109.119 9.9028 111.972 14.5717 116.822C18.911 121.33 25.7166 126.291 34.6576 130.903C52.4993 140.108 77.5172 147.245 104.706 147.094C131.792 146.943 156.555 139.137 174.263 129.506C183.132 124.682 189.935 119.562 194.313 115.006C196.502 112.728 197.906 110.775 198.702 109.259C199.421 107.886 199.456 107.238 199.46 107.195C199.392 106.407 198.298 103.294 193.378 98.3809C188.79 93.7997 181.939 88.7346 173.161 84.0195C170.379 82.525 167.426 81.078 164.32 79.7021C165.71 78.2774 167.057 76.8336 168.342 75.3721C169.127 74.4791 169.868 73.5727 170.571 72.6592Z" fill="#ED0D79"/>
<path d="M98.0005 0L102.158 16.8422L119.001 21L102.158 25.1578L98.0005 42L93.8427 25.1578L77.0005 21L93.8427 16.8422L98.0005 0Z" fill="#ED0D79"/>
</svg>
