<svg width="126" height="40" viewBox="0 0 126 40" fill="none" xmlns="http://www.w3.org/2000/svg">
<g clip-path="url(#clip0_5448_2111)">
<path d="M12.7818 31.6755L13.7651 31.8073L13.8966 32.7934C13.5902 32.8345 13.2822 32.73 13.0636 32.5109C12.845 32.2917 12.7409 31.9827 12.7818 31.6755Z" fill="#040404"/>
<path fill-rule="evenodd" clip-rule="evenodd" d="M16.8178 26.0025H16.818C17.5295 26.0247 18.2081 26.3094 18.7233 26.8026C18.7274 26.8064 18.7315 26.8104 18.7354 26.8143C19.8177 27.886 19.8018 29.6012 18.8761 30.7017L18.8763 30.7018C18.4754 31.1804 17.9273 31.5272 17.4096 31.7808C16.8804 32.04 16.3113 32.2361 15.8026 32.3821C15.2907 32.5289 14.8189 32.6308 14.4759 32.6961C14.3038 32.7289 14.1623 32.7527 14.0624 32.7686C14.0125 32.7765 13.9728 32.7826 13.9448 32.7867C13.9307 32.7887 13.9196 32.7903 13.9115 32.7914C13.9075 32.792 13.9042 32.7924 13.9017 32.7927C13.9005 32.7929 13.8994 32.793 13.8986 32.7931C13.8982 32.7932 13.8977 32.7933 13.8974 32.7934H13.897C13.8966 32.7921 13.8918 32.7573 13.7651 31.8073C12.7818 31.6755 12.7818 31.6751 12.7818 31.6751L12.7819 31.6747C12.782 31.6744 12.782 31.6739 12.7821 31.6735C12.7822 31.6727 12.7823 31.6716 12.7825 31.6705C12.7828 31.668 12.7832 31.6646 12.7838 31.6606C12.7849 31.6525 12.7865 31.6412 12.7885 31.6272C12.7926 31.5991 12.7986 31.5593 12.8066 31.5092C12.8224 31.4091 12.8461 31.2672 12.8788 31.0946C12.9439 30.7507 13.0456 30.2776 13.192 29.7643C13.3375 29.2542 13.5331 28.6834 13.7916 28.1527C14.0445 27.6335 14.3903 27.0839 14.8676 26.682C15.4119 26.2225 16.1063 25.9805 16.8178 26.0025ZM16.7563 27.9911C16.5334 27.9842 16.3156 28.0603 16.1449 28.2045L16.1438 28.2055C15.9684 28.3533 15.7702 28.6241 15.5744 29.0261C15.3841 29.4167 15.2261 29.8682 15.0997 30.3115C15.0788 30.3847 15.0591 30.4573 15.0402 30.5286C15.1114 30.5096 15.1837 30.49 15.2568 30.469C15.6989 30.3422 16.1492 30.1838 16.5388 29.993C16.9396 29.7967 17.2097 29.598 17.3571 29.422L17.359 29.4196C17.6654 29.0561 17.6335 28.5259 17.3465 28.2356C17.1861 28.0852 16.9764 27.998 16.7563 27.9911Z" fill="#040404"/>
<path fill-rule="evenodd" clip-rule="evenodd" d="M30.7424 13.794C31.2879 13.7974 31.7284 14.2419 31.7284 14.7889C31.7284 17.2527 31.0411 21.5413 26.6499 24.8031C26.7201 25.1072 26.7967 25.4919 26.8509 25.9136C26.9152 26.4141 26.9519 26.9937 26.8988 27.5665C26.8465 28.1308 26.7005 28.7621 26.3399 29.3046L26.3391 29.3059C25.7246 30.2271 24.5759 30.7514 23.7955 31.0353C23.3722 31.1893 22.9814 31.2984 22.6973 31.3691C22.5545 31.4046 22.4367 31.4309 22.3529 31.4486C22.311 31.4575 22.2773 31.4642 22.2533 31.469C22.2412 31.4713 22.2315 31.4732 22.2243 31.4745C22.2207 31.4752 22.2177 31.4758 22.2154 31.4762C22.2142 31.4764 22.2132 31.4766 22.2123 31.4768L22.2108 31.4771C22.2103 31.4759 22.2038 31.4416 22.0331 30.4983L22.2104 31.4771C21.921 31.5298 21.6231 31.4511 21.3973 31.262C21.1716 31.073 21.0411 30.7933 21.0411 30.4983V26.5466L19.0113 24.5111H15.0705C14.7764 24.5111 14.4974 24.3803 14.3089 24.1539C14.1204 23.9274 14.0419 23.6287 14.0944 23.3386L15.0705 23.5163C14.1301 23.3451 14.0958 23.3386 14.0945 23.3382V23.3376C14.0946 23.3373 14.0947 23.3369 14.0948 23.3366C14.0949 23.3357 14.0951 23.3347 14.0953 23.3335C14.0958 23.3312 14.0964 23.3281 14.097 23.3246C14.0984 23.3174 14.1002 23.3076 14.1026 23.2955C14.1073 23.2714 14.114 23.2377 14.1228 23.1958C14.1405 23.1117 14.1668 22.9936 14.2022 22.8504C14.2727 22.5655 14.3814 22.1735 14.535 21.749C14.8181 20.9664 15.341 19.8147 16.2596 19.1985L16.2609 19.1975C16.8019 18.8359 17.4314 18.6895 17.9941 18.6371C18.5654 18.5838 19.1435 18.6206 19.6426 18.6851C20.0671 18.74 20.454 18.8176 20.7585 18.8885C21.8167 17.412 23.192 16.1877 24.7866 15.3083L24.9582 15.2154C26.7386 14.2702 28.7259 13.7814 30.7424 13.794ZM24.8488 25.932C24.2558 26.2538 23.6473 26.5461 23.0252 26.8077V29.1979C23.0562 29.1871 23.0876 29.1762 23.1189 29.1648C23.8681 28.8923 24.4601 28.5439 24.6897 28.1996C24.7986 28.0351 24.8873 27.7679 24.9231 27.3824C24.9581 27.0046 24.9361 26.5816 24.8829 26.1679C24.8726 26.0878 24.8609 26.009 24.8488 25.932ZM29.6965 15.83C28.3668 15.9572 27.0719 16.3447 25.8865 16.974L25.7428 17.0517C24.2154 17.8941 22.9283 19.1145 22.004 20.5965C22.0022 20.5995 22.0002 20.6025 21.9984 20.6055C21.4551 21.4562 20.9839 22.3507 20.5889 23.2793L22.2718 24.9669C23.2093 24.5717 24.113 24.0996 24.9733 23.5549C28.531 21.1575 29.4924 18.0433 29.6965 15.83ZM19.389 20.6586C18.9764 20.6052 18.5545 20.5832 18.1777 20.6183C17.7933 20.6541 17.5268 20.7429 17.3627 20.8521L17.3628 20.8523C17.0195 21.0827 16.672 21.6764 16.4003 22.4276C16.3889 22.459 16.3779 22.4904 16.3671 22.5214H18.7541C19.0184 21.898 19.3138 21.2884 19.639 20.695C19.5576 20.682 19.474 20.6695 19.389 20.6586Z" fill="#040404"/>
<path fill-rule="evenodd" clip-rule="evenodd" d="M24.5152 0.144932C27.2245 -0.0880803 27.9214 0.0679889 29.6244 1.30836L36.6666 6.27181C37.8287 7.12532 38.2159 7.35784 38.2159 8.28827V35.5114C38.2159 37.2172 37.5962 38.2263 35.4291 38.3805L9.80921 39.9322C8.18259 40.0099 7.4084 39.7773 6.55656 38.6908L1.37043 31.9435C0.441154 30.7015 0.0546875 29.7721 0.0546875 28.685V4.4876C0.0546939 3.09241 0.674619 1.92861 2.45351 1.77408L24.5152 0.144932ZM35.5842 10.6149C35.5842 9.60752 35.1979 9.06419 34.3445 9.14171L9.18832 10.6149C8.25998 10.6931 7.95035 11.1588 7.95035 12.1668V35.2781C7.95035 36.5201 8.56925 36.985 9.9624 36.9082L34.0351 35.5114C35.4289 35.4345 35.5842 34.5799 35.5842 33.5711V10.6149ZM28.8496 3.32536C28.1528 2.78272 27.224 2.16128 25.4443 2.31673L4.23433 3.86801C3.46091 3.94494 3.30643 4.33272 3.61449 4.64359L6.63513 7.04778C7.87246 8.05578 8.33672 7.97892 10.6601 7.82348L32.5645 6.5046C33.0288 6.50459 32.6424 6.03985 32.4877 5.9626L28.8496 3.32536Z" fill="#040404"/>
<path d="M45.5693 19.1329V5.74084H50.0967C51.5364 5.74084 52.774 6.00678 53.8095 6.53866C54.8451 7.07054 55.6407 7.8367 56.1963 8.83715C56.7646 9.83759 57.0488 11.0407 57.0488 12.4463C57.0488 13.852 56.7646 15.0551 56.1963 16.0555C55.6407 17.0433 54.8388 17.8032 53.7906 18.335C52.755 18.8669 51.5174 19.1329 50.0778 19.1329H45.5693ZM48.5244 18.316L46.9332 16.5874H49.9073C51.2333 16.5874 52.2246 16.2265 52.8813 15.5047C53.5506 14.7828 53.8853 13.7634 53.8853 12.4463C53.8853 11.1293 53.5506 10.1099 52.8813 9.38803C52.2246 8.65352 51.2333 8.28627 49.9073 8.28627H46.9332L48.5244 6.55765V18.316Z" fill="#040404"/>
<path d="M58.5507 19.1329V9.21706H61.3543V19.1329H58.5507ZM59.9525 8.22928C59.4853 8.22928 59.0938 8.07098 58.7781 7.75439C58.475 7.43779 58.3234 7.05788 58.3234 6.61464C58.3234 6.15874 58.475 5.77883 58.7781 5.47489C59.0938 5.1583 59.4853 5 59.9525 5C60.4324 5 60.8239 5.1583 61.127 5.47489C61.4427 5.77883 61.6006 6.15874 61.6006 6.61464C61.6006 7.05788 61.4427 7.43779 61.127 7.75439C60.8239 8.07098 60.4324 8.22928 59.9525 8.22928Z" fill="#040404"/>
<path d="M63.1385 19.1329V9.21706H65.7716V10.2428C65.9736 9.85026 66.2767 9.54632 66.6808 9.33104C67.0849 9.10309 67.5711 8.98911 68.1394 8.98911C68.2657 8.98911 68.3794 8.99545 68.4804 9.00811C68.5814 9.00811 68.6698 9.02077 68.7456 9.0461V11.7245C68.5941 11.6992 68.4488 11.6802 68.3099 11.6675C68.1836 11.6422 68.0384 11.6295 67.8742 11.6295C67.508 11.6295 67.1733 11.7118 66.8703 11.8765C66.5798 12.0411 66.3525 12.307 66.1883 12.6743C66.0241 13.0289 65.942 13.4974 65.942 14.08V19.1329H63.1385Z" fill="#040404"/>
<path d="M74.5339 19.3608C73.4983 19.3608 72.5954 19.1455 71.825 18.715C71.0673 18.2717 70.4801 17.6575 70.0633 16.8724C69.6592 16.0745 69.4571 15.1437 69.4571 14.08C69.4571 13.0795 69.6655 12.1994 70.0823 11.4396C70.5116 10.6671 71.1052 10.0655 71.8629 9.63497C72.6206 9.2044 73.4794 8.98911 74.4391 8.98911C75.3863 8.98911 76.2135 9.1854 76.9207 9.57798C77.6279 9.9579 78.1772 10.5088 78.5687 11.2306C78.9602 11.9398 79.1559 12.7883 79.1559 13.7761C79.1559 13.9533 79.1496 14.1496 79.137 14.3649C79.1244 14.5675 79.1054 14.7385 79.0802 14.8778H70.7642V13.0732H77.2995L76.466 13.3771C76.466 12.8706 76.384 12.4463 76.2198 12.1044C76.0556 11.7498 75.8157 11.4902 75.5 11.3256C75.1842 11.1483 74.7991 11.0597 74.3444 11.0597C73.9151 11.0597 73.5362 11.1483 73.2079 11.3256C72.8795 11.5029 72.6269 11.7688 72.4501 12.1234C72.2733 12.478 72.1849 12.9212 72.1849 13.4531V14.6309C72.1849 15.3907 72.3807 15.9986 72.7722 16.4545C73.1763 16.9104 73.7825 17.1383 74.5907 17.1383C75.1085 17.1383 75.5505 17.0307 75.9167 16.8154C76.2956 16.6001 76.5986 16.2708 76.826 15.8276L78.9476 16.8724C78.695 17.4042 78.3477 17.8601 77.9057 18.2401C77.4637 18.6073 76.9586 18.8859 76.3903 19.0759C75.822 19.2658 75.2032 19.3608 74.5339 19.3608Z" fill="#040404"/>
<path d="M85.1879 19.3608C84.2282 19.3608 83.3694 19.1519 82.6117 18.734C81.854 18.3034 81.2541 17.7018 80.8121 16.9294C80.3827 16.1442 80.1681 15.2261 80.1681 14.175C80.1681 13.1112 80.3827 12.1931 80.8121 11.4206C81.2541 10.6481 81.854 10.0529 82.6117 9.63497C83.3694 9.2044 84.2282 8.98911 85.1879 8.98911C86.4382 8.98911 87.4422 9.26139 88.1999 9.80593C88.9576 10.3378 89.4943 11.085 89.81 12.0474L87.2148 12.8643C87.0128 12.2817 86.7413 11.8828 86.4003 11.6675C86.0593 11.4396 85.6615 11.3256 85.2069 11.3256C84.8028 11.3256 84.4365 11.4332 84.1082 11.6485C83.7925 11.8638 83.5336 12.1804 83.3315 12.5983C83.1421 13.0162 83.0474 13.5418 83.0474 14.175C83.0474 14.7955 83.1421 15.321 83.3315 15.7516C83.5336 16.1695 83.7925 16.4861 84.1082 16.7014C84.4365 16.904 84.8028 17.0053 85.2069 17.0053C85.6615 17.0053 86.053 16.8977 86.3813 16.6824C86.7223 16.4545 87.0001 16.0555 87.2148 15.4857L89.81 16.2835C89.4943 17.2333 88.9576 17.9868 88.1999 18.544C87.4422 19.0885 86.4382 19.3608 85.1879 19.3608Z" fill="#040404"/>
<path d="M95.109 19.3228C94.1114 19.3228 93.3536 19.0822 92.8359 18.601C92.3181 18.1198 92.0592 17.4169 92.0592 16.4924V7.07054L94.8628 5.87381V15.8846C94.8628 16.2392 94.9448 16.4988 95.109 16.6634C95.2858 16.828 95.5384 16.9104 95.8667 16.9104C95.993 16.9104 96.1193 16.8977 96.2456 16.8724C96.3845 16.847 96.5297 16.809 96.6813 16.7584V19.0759C96.4035 19.1645 96.1383 19.2278 95.8857 19.2658C95.6331 19.3038 95.3742 19.3228 95.109 19.3228ZM90.3922 11.4016V9.21706H96.776V11.4016H90.3922Z" fill="#040404"/>
<path d="M102.802 19.3608C101.804 19.3608 100.914 19.1519 100.131 18.734C99.3608 18.3034 98.7546 17.7018 98.3126 16.9294C97.8706 16.1569 97.6496 15.2387 97.6496 14.175C97.6496 13.1112 97.8706 12.1931 98.3126 11.4206C98.7546 10.6481 99.3608 10.0529 100.131 9.63497C100.914 9.2044 101.804 8.98911 102.802 8.98911C103.812 8.98911 104.703 9.2044 105.473 9.63497C106.256 10.0529 106.869 10.6481 107.311 11.4206C107.753 12.1931 107.974 13.1112 107.974 14.175C107.974 15.2387 107.753 16.1569 107.311 16.9294C106.869 17.7018 106.256 18.3034 105.473 18.734C104.703 19.1519 103.812 19.3608 102.802 19.3608ZM102.802 17.0053C103.257 17.0053 103.655 16.8977 103.995 16.6824C104.336 16.4671 104.602 16.1505 104.791 15.7326C104.993 15.302 105.094 14.7828 105.094 14.175C105.094 13.5544 104.993 13.0352 104.791 12.6173C104.602 12.1994 104.336 11.8828 103.995 11.6675C103.655 11.4396 103.257 11.3256 102.802 11.3256C102.36 11.3256 101.962 11.4396 101.609 11.6675C101.268 11.8828 101.002 12.1994 100.813 12.6173C100.624 13.0352 100.529 13.5544 100.529 14.175C100.529 14.7828 100.624 15.302 100.813 15.7326C101.002 16.1505 101.268 16.4671 101.609 16.6824C101.962 16.8977 102.36 17.0053 102.802 17.0053Z" fill="#040404"/>
<path d="M109.404 19.1329V9.21706H112.038V10.2428C112.24 9.85026 112.543 9.54632 112.947 9.33104C113.351 9.10309 113.837 8.98911 114.405 8.98911C114.532 8.98911 114.645 8.99545 114.746 9.00811C114.847 9.00811 114.936 9.02077 115.012 9.0461V11.7245C114.86 11.6992 114.715 11.6802 114.576 11.6675C114.45 11.6422 114.304 11.6295 114.14 11.6295C113.774 11.6295 113.439 11.7118 113.136 11.8765C112.846 12.0411 112.618 12.307 112.454 12.6743C112.29 13.0289 112.208 13.4974 112.208 14.08V19.1329H109.404Z" fill="#040404"/>
<path d="M118.727 22.932L120.224 18.2401L120.489 17.7462L123.084 9.21706H125.945L121.588 22.932H118.727ZM118.917 19.0189L115.602 9.21706H118.462L120.887 16.9104H121.683L121.398 19.0189H118.917Z" fill="#040404"/>
<path d="M53.6959 36.295V22.903H56.632V36.295H53.6959ZM45.5693 36.295V22.903H48.5244V36.295H45.5693ZM47.4447 30.4063V27.7469H54.7756V30.4063H47.4447Z" fill="#040404"/>
<path d="M63.0759 36.523C62.2045 36.523 61.4278 36.371 60.7459 36.0671C60.064 35.7505 59.5272 35.2819 59.1358 34.6614C58.7443 34.0409 58.5485 33.262 58.5485 32.3249V26.3792H61.3521V32.1729C61.3521 32.8315 61.5036 33.3317 61.8067 33.6736C62.1224 34.0029 62.5455 34.1675 63.0759 34.1675C63.6063 34.1675 64.023 34.0029 64.3261 33.6736C64.6418 33.3317 64.7997 32.8315 64.7997 32.1729V26.3792H67.6033V32.3249C67.6033 33.262 67.4075 34.0409 67.016 34.6614C66.6372 35.2819 66.1004 35.7505 65.4059 36.0671C64.7239 36.371 63.9473 36.523 63.0759 36.523Z" fill="#040404"/>
<path d="M75.6071 36.295V30.5773C75.6071 29.9061 75.4556 29.4059 75.1525 29.0766C74.862 28.7474 74.4579 28.5827 73.9401 28.5827C73.3718 28.5827 72.9172 28.7727 72.5762 29.1526C72.2479 29.5199 72.0837 30.0327 72.0837 30.6913V36.295H69.2801V26.3792H71.9132V27.443C72.2037 27.0251 72.5825 26.7085 73.0498 26.4932C73.5171 26.2653 74.0727 26.1513 74.7168 26.1513C75.4366 26.1513 76.0744 26.2906 76.63 26.5692C77.1857 26.8478 77.6214 27.2847 77.9371 27.8799C78.2528 28.4751 78.4107 29.2413 78.4107 30.1784V36.295H75.6071Z" fill="#040404"/>
<path d="M84.1761 36.485C83.1785 36.485 82.4207 36.2444 81.903 35.7631C81.3852 35.2819 81.1263 34.5791 81.1263 33.6546V24.2327L83.9299 23.036V33.0467C83.9299 33.4013 84.0119 33.6609 84.1761 33.8256C84.3529 33.9902 84.6055 34.0725 84.9338 34.0725C85.0601 34.0725 85.1864 34.0599 85.3127 34.0345C85.4516 34.0092 85.5968 33.9712 85.7484 33.9206V36.238C85.4706 36.3267 85.2054 36.39 84.9528 36.428C84.7002 36.466 84.4413 36.485 84.1761 36.485ZM79.4593 28.5637V26.3792H85.8431V28.5637H79.4593Z" fill="#040404"/>
</g>
<defs>
<clipPath id="clip0_5448_2111">
<rect width="126" height="40" fill="white"/>
</clipPath>
</defs>
</svg>
