<svg width="148" height="39" viewBox="0 0 148 39" fill="none" xmlns="http://www.w3.org/2000/svg">
<path d="M56.9168 17.5833H53.8321L58.4405 4.21606H62.5815L67.1245 17.5833H63.9743L60.2025 5.1742H60.754L56.9168 17.5833ZM56.5429 14.6434V12.2317H64.7502V14.6434H56.5429Z" fill="#190318"/>
<path d="M71.6795 4.21606V17.5833H68.7256V4.21606H71.6795Z" fill="#190318"/>
<path d="M79.2125 4.21606H82.1664V15.3024L81.9421 15.0687H88.2424V17.5833H79.2125V4.21606Z" fill="#190318"/>
<path d="M90.2932 11.0539C90.2932 10.4307 90.407 9.86831 90.6344 9.36665C90.865 8.86499 91.1937 8.43967 91.6206 8.09069C92.0506 7.73859 92.571 7.46906 93.1817 7.28211C93.7955 7.09204 94.4841 6.997 95.2475 6.997C96.0358 6.997 96.7385 7.09827 97.3554 7.3008C97.9755 7.50334 98.499 7.79623 98.9258 8.17949C99.3558 8.55963 99.6846 9.02701 99.912 9.58164C100.139 10.1363 100.253 10.7657 100.253 11.4699V17.5833H97.4536V14.8911H97.4676C97.3928 15.1965 97.29 15.4832 97.1591 15.7511C97.0282 16.016 96.8725 16.259 96.6917 16.4803C96.511 16.6984 96.3054 16.8931 96.0748 17.0645C95.8473 17.2359 95.5996 17.3823 95.3316 17.5038C95.0637 17.6222 94.7755 17.711 94.467 17.7702C94.1585 17.8326 93.836 17.8637 93.4995 17.8637C92.9729 17.8637 92.4931 17.7905 92.0599 17.644C91.6299 17.5007 91.2607 17.2966 90.9522 17.0318C90.6469 16.7638 90.4101 16.4429 90.2418 16.069C90.0736 15.6919 89.9894 15.276 89.9894 14.821C89.9894 14.3318 90.086 13.8956 90.2792 13.5124C90.4755 13.126 90.7559 12.7988 91.1205 12.5308C91.4882 12.2629 91.9369 12.0588 92.4666 11.9186C92.9963 11.7784 93.5976 11.7082 94.2707 11.7082H97.5237V13.4095H94.5605C94.2707 13.4095 94.0152 13.4345 93.7939 13.4843C93.5758 13.5311 93.392 13.6043 93.2424 13.704C93.0929 13.8006 92.9791 13.9205 92.9012 14.0639C92.8265 14.2072 92.7891 14.3739 92.7891 14.564C92.7891 14.7572 92.8296 14.9301 92.9106 15.0828C92.9916 15.2323 93.1084 15.3585 93.2611 15.4614C93.4138 15.5642 93.6023 15.6436 93.8267 15.6997C94.0541 15.7527 94.3127 15.7792 94.6025 15.7792C94.8767 15.7792 95.1369 15.7558 95.3831 15.7091C95.6292 15.6623 95.8582 15.5953 96.0701 15.5081C96.282 15.4208 96.4721 15.3165 96.6403 15.1949C96.8117 15.0703 96.9581 14.9316 97.0797 14.779C97.2012 14.6232 97.2931 14.4565 97.3554 14.2789C97.4209 14.1013 97.4536 13.9127 97.4536 13.7133V11.4699C97.4536 11.1147 97.4022 10.7968 97.2993 10.5164C97.1965 10.236 97.0485 9.99917 96.8553 9.80599C96.6621 9.60969 96.4238 9.46012 96.1402 9.3573C95.8598 9.25447 95.5404 9.20306 95.1821 9.20306C94.8206 9.20306 94.5075 9.24668 94.2426 9.33393C93.9809 9.41806 93.7643 9.53958 93.593 9.69849C93.4216 9.8574 93.2938 10.0521 93.2097 10.2827C93.1256 10.5102 93.0835 10.7672 93.0835 11.0539H90.2932Z" fill="#190318"/>
<path d="M109.338 12.6851V7.27743H112.138V17.5833H109.338V14.4331L109.352 14.4191C109.246 14.9768 109.087 15.4707 108.876 15.9007C108.667 16.3276 108.408 16.6859 108.1 16.9757C107.791 17.2655 107.438 17.4851 107.039 17.6347C106.64 17.7874 106.199 17.8637 105.716 17.8637C105.161 17.8637 104.671 17.764 104.244 17.5646C103.817 17.3652 103.46 17.0707 103.173 16.6812C102.887 16.2917 102.669 15.8119 102.519 15.2417C102.37 14.6684 102.295 14.0093 102.295 13.2646V7.27743H105.094V12.7973C105.094 13.2366 105.135 13.6214 105.216 13.9517C105.3 14.2789 105.425 14.5515 105.59 14.7696C105.758 14.9877 105.967 15.1513 106.216 15.2604C106.469 15.3694 106.763 15.424 107.1 15.424C107.336 15.424 107.556 15.3975 107.759 15.3445C107.961 15.2915 108.145 15.2136 108.31 15.1108C108.478 15.0049 108.626 14.8756 108.754 14.7229C108.882 14.5671 108.988 14.3879 109.072 14.1854C109.159 13.9797 109.225 13.7523 109.268 13.503C109.315 13.2537 109.338 12.9811 109.338 12.6851Z" fill="#190318"/>
<path d="M117.067 12.1756V17.5833H114.267V7.27743H117.067V10.4276L117.053 10.4416C117.159 9.88389 117.316 9.39157 117.525 8.9647C117.737 8.5347 117.997 8.17481 118.305 7.88504C118.614 7.59526 118.968 7.37559 119.366 7.22602C119.765 7.07334 120.206 6.997 120.689 6.997C121.244 6.997 121.734 7.09671 122.161 7.29613C122.588 7.49555 122.945 7.79 123.232 8.17949C123.518 8.56898 123.736 9.05038 123.886 9.62371C124.036 10.1939 124.11 10.8514 124.11 11.5961V17.5833H121.311V12.0635C121.311 11.6241 121.269 11.2409 121.184 10.9137C121.103 10.5834 120.979 10.3092 120.811 10.0911C120.645 9.87298 120.437 9.7094 120.184 9.60034C119.935 9.49128 119.642 9.43676 119.306 9.43676C119.069 9.43676 118.849 9.46324 118.647 9.51621C118.444 9.56918 118.259 9.64864 118.09 9.75458C117.925 9.8574 117.779 9.98671 117.651 10.1425C117.523 10.2952 117.416 10.4743 117.329 10.68C117.244 10.8825 117.179 11.1084 117.132 11.3577C117.089 11.607 117.067 11.8796 117.067 12.1756Z" fill="#190318"/>
<path d="M128.796 12.428C128.796 12.9048 128.851 13.3301 128.96 13.704C129.069 14.0748 129.226 14.3879 129.432 14.6434C129.637 14.8989 129.89 15.0937 130.189 15.2277C130.488 15.3585 130.828 15.424 131.208 15.424C131.526 15.424 131.806 15.3772 132.049 15.2837C132.295 15.1903 132.506 15.0594 132.68 14.8911C132.858 14.7198 133.003 14.5172 133.115 14.2835C133.227 14.0498 133.31 13.7928 133.362 13.5124H136.153C136.069 14.1511 135.893 14.7369 135.625 15.2697C135.36 15.8025 135.014 16.2606 134.587 16.6438C134.163 17.0271 133.666 17.3262 133.096 17.5412C132.526 17.7562 131.895 17.8637 131.203 17.8637C130.689 17.8637 130.203 17.8061 129.745 17.6908C129.287 17.5755 128.865 17.4072 128.478 17.186C128.092 16.9648 127.745 16.6968 127.436 16.3821C127.128 16.0643 126.864 15.7044 126.646 15.3024C126.431 14.8974 126.266 14.4549 126.151 13.9751C126.035 13.4921 125.978 12.9764 125.978 12.428C125.978 11.8796 126.035 11.3655 126.151 10.8856C126.266 10.4027 126.431 9.96023 126.646 9.55827C126.864 9.15632 127.128 8.79644 127.436 8.47862C127.745 8.16079 128.092 7.89283 128.478 7.67471C128.865 7.45348 129.287 7.28522 129.745 7.16994C130.203 7.05465 130.689 6.997 131.203 6.997C131.895 6.997 132.526 7.1045 133.096 7.3195C133.666 7.5345 134.163 7.83362 134.587 8.21688C135.014 8.60014 135.36 9.05817 135.625 9.59099C135.893 10.1238 136.069 10.7096 136.153 11.3484H133.362C133.31 11.0679 133.227 10.8109 133.115 10.5772C133.003 10.3404 132.858 10.1378 132.68 9.96957C132.506 9.80132 132.295 9.67045 132.049 9.57697C131.806 9.48349 131.526 9.43676 131.208 9.43676C130.828 9.43676 130.488 9.50375 130.189 9.63773C129.89 9.7686 129.637 9.96178 129.432 10.2173C129.226 10.4697 129.069 10.7828 128.96 11.1567C128.851 11.5275 128.796 11.9513 128.796 12.428Z" fill="#190318"/>
<path d="M140.863 12.1756V17.5833H138.064V3.74868H140.863V10.4276L140.849 10.4416C140.955 9.88389 141.113 9.39157 141.321 8.9647C141.533 8.5347 141.793 8.17481 142.102 7.88504C142.41 7.59526 142.764 7.37559 143.163 7.22602C143.562 7.07334 144.003 6.997 144.486 6.997C145.04 6.997 145.531 7.09671 145.958 7.29613C146.385 7.49555 146.741 7.79 147.028 8.17949C147.315 8.56898 147.533 9.05038 147.682 9.62371C147.832 10.1939 147.907 10.8514 147.907 11.5961V17.5833H145.107V12.0635C145.107 11.6241 145.065 11.2409 144.981 10.9137C144.9 10.5834 144.775 10.3092 144.607 10.0911C144.442 9.87298 144.233 9.7094 143.981 9.60034C143.731 9.49128 143.439 9.43676 143.102 9.43676C142.865 9.43676 142.646 9.46324 142.443 9.51621C142.241 9.56918 142.055 9.64864 141.887 9.75458C141.722 9.8574 141.575 9.98671 141.448 10.1425C141.32 10.2952 141.212 10.4743 141.125 10.68C141.041 10.8825 140.975 11.1084 140.929 11.3577C140.885 11.607 140.863 11.8796 140.863 12.1756Z" fill="#190318"/>
<path d="M60.0062 21.8189C60.8631 21.8189 61.6343 21.9217 62.3198 22.1274C63.0084 22.333 63.5926 22.6306 64.0725 23.0201C64.5554 23.4065 64.9262 23.8785 65.1849 24.4363C65.4435 24.9909 65.5728 25.6172 65.5728 26.3152H62.7404C62.7404 25.9942 62.6734 25.7044 62.5394 25.4458C62.4086 25.1872 62.2216 24.9675 61.9786 24.7868C61.7355 24.6061 61.4427 24.4674 61.0999 24.3708C60.7603 24.2711 60.3832 24.2213 59.9688 24.2213C59.7351 24.2213 59.5061 24.2369 59.2818 24.268C59.0605 24.2992 58.8502 24.3459 58.6508 24.4082C58.4514 24.4705 58.266 24.5484 58.0946 24.6419C57.9264 24.7354 57.7815 24.8445 57.6599 24.9691C57.5384 25.0937 57.4418 25.2355 57.3702 25.3944C57.3016 25.5502 57.2673 25.7216 57.2673 25.9085C57.2673 26.0861 57.2969 26.2404 57.3561 26.3712C57.4153 26.5021 57.501 26.6158 57.6132 26.7124C57.7285 26.809 57.8703 26.8932 58.0385 26.9648C58.2068 27.0334 58.4031 27.0941 58.6274 27.1471C58.8518 27.2001 59.1011 27.2499 59.3753 27.2967C59.6495 27.3434 59.9501 27.3901 60.2773 27.4369L60.8195 27.5163C61.1934 27.5693 61.5813 27.6316 61.9833 27.7033C62.3852 27.7718 62.7778 27.8653 63.1611 27.9837C63.5474 28.099 63.9136 28.247 64.2594 28.4277C64.6053 28.6054 64.9091 28.8313 65.1708 29.1055C65.4326 29.3765 65.6398 29.7053 65.7925 30.0916C65.9451 30.478 66.0215 30.9345 66.0215 31.4611C66.0215 32.1653 65.8813 32.7838 65.6008 33.3166C65.3235 33.8494 64.9278 34.2965 64.4137 34.658C63.9027 35.0163 63.2842 35.2874 62.5581 35.4712C61.8321 35.6551 61.022 35.747 60.1277 35.747C59.1649 35.747 58.3096 35.6426 57.5618 35.4338C56.8171 35.2251 56.1892 34.9228 55.6782 34.5271C55.1703 34.1314 54.784 33.6484 54.5191 33.0782C54.2574 32.5049 54.1265 31.8552 54.1265 31.1292H56.9589C56.9589 31.4751 57.0321 31.7851 57.1785 32.0593C57.325 32.3335 57.5338 32.5657 57.8048 32.7557C58.0759 32.9458 58.4046 33.0922 58.791 33.1951C59.1805 33.2948 59.6183 33.3446 60.1044 33.3446C60.5219 33.3446 60.9114 33.3072 61.2728 33.2325C61.6374 33.1546 61.9537 33.0408 62.2216 32.8913C62.4927 32.7386 62.7062 32.5485 62.8619 32.3211C63.0177 32.0936 63.0956 31.8272 63.0956 31.5218C63.0956 31.3286 63.066 31.1619 63.0068 31.0217C62.9476 30.8784 62.8604 30.7553 62.7451 30.6525C62.6329 30.5466 62.4927 30.4578 62.3245 30.3861C62.1593 30.3144 61.9677 30.2537 61.7496 30.2038C61.5346 30.1508 61.2962 30.1041 61.0345 30.0636C60.7727 30.02 60.4892 29.9763 60.1838 29.9327L59.4781 29.8299C59.1104 29.78 58.7271 29.7224 58.3283 29.657C57.9326 29.5915 57.5447 29.5058 57.1645 29.3999C56.7844 29.2908 56.4229 29.1522 56.0802 28.9839C55.7406 28.8126 55.4414 28.596 55.1828 28.3343C54.9273 28.0725 54.7232 27.7578 54.5705 27.3901C54.4179 27.0225 54.3415 26.5847 54.3415 26.0768C54.3415 25.6156 54.4069 25.1903 54.5378 24.8008C54.6687 24.4082 54.8541 24.0546 55.094 23.7399C55.337 23.422 55.6284 23.1447 55.968 22.9079C56.3108 22.668 56.6909 22.4686 57.1084 22.3097C57.5291 22.1476 57.9824 22.0261 58.4685 21.9451C58.9577 21.861 59.4703 21.8189 60.0062 21.8189Z" fill="#190318"/>
<path d="M70.6569 25.1607V28.3389L70.6429 28.3483C70.7551 27.7999 70.9155 27.3107 71.1243 26.8807C71.3331 26.4507 71.5839 26.0877 71.8768 25.7917C72.1728 25.4957 72.5093 25.2698 72.8863 25.114C73.2665 24.9582 73.6793 24.8803 74.1249 24.8803C74.5331 24.8803 74.9195 24.941 75.284 25.0626C75.6486 25.181 75.9851 25.3523 76.2936 25.5767C76.6021 25.801 76.8794 26.0752 77.1255 26.3993C77.3748 26.7202 77.5851 27.0817 77.7565 27.4836C77.9279 27.8856 78.0587 28.3249 78.1491 28.8017C78.2426 29.2753 78.2893 29.7785 78.2893 30.3113C78.2893 30.8441 78.2426 31.3489 78.1491 31.8256C78.0587 32.2993 77.9279 32.7386 77.7565 33.1437C77.5851 33.5456 77.3748 33.9071 77.1255 34.228C76.8794 34.5489 76.6021 34.8231 76.2936 35.0506C75.9851 35.2749 75.6486 35.4463 75.284 35.5647C74.9195 35.6862 74.5331 35.747 74.1249 35.747C73.6793 35.747 73.2665 35.6691 72.8863 35.5133C72.5093 35.3575 72.1728 35.1316 71.8768 34.8356C71.5839 34.5396 71.3331 34.1766 71.1243 33.7466C70.9155 33.3135 70.7551 32.8227 70.6429 32.2743L70.6569 32.2883V39H67.8573V25.1607H70.6569ZM70.6569 30.3113C70.6569 30.6322 70.6803 30.9298 70.727 31.204C70.7769 31.4782 70.8485 31.7275 70.942 31.9518C71.0355 32.1762 71.1508 32.3756 71.2879 32.5501C71.4281 32.7215 71.5886 32.8663 71.7693 32.9847C71.95 33.1 72.1494 33.1873 72.3675 33.2465C72.5888 33.3057 72.8271 33.3353 73.0826 33.3353C73.4752 33.3353 73.8196 33.2714 74.1156 33.1437C74.4147 33.0159 74.664 32.8243 74.8634 32.5688C75.0628 32.3133 75.2139 31.997 75.3167 31.62C75.4196 31.243 75.471 30.8067 75.471 30.3113C75.471 29.8159 75.4196 29.3797 75.3167 29.0026C75.217 28.6256 75.0659 28.3109 74.8634 28.0585C74.664 27.803 74.4147 27.6114 74.1156 27.4836C73.8196 27.3559 73.4752 27.292 73.0826 27.292C72.8271 27.292 72.5888 27.3216 72.3675 27.3808C72.1494 27.44 71.95 27.5288 71.7693 27.6472C71.5886 27.7625 71.4281 27.9058 71.2879 28.0772C71.1508 28.2486 71.0355 28.4464 70.942 28.6708C70.8485 28.8951 70.7769 29.1444 70.727 29.4186C70.6803 29.6928 70.6569 29.9904 70.6569 30.3113Z" fill="#190318"/>
<path d="M80.1349 28.9372C80.1349 28.314 80.2486 27.7516 80.4761 27.2499C80.7067 26.7483 81.0354 26.3229 81.4623 25.974C81.8923 25.6219 82.4126 25.3523 83.0233 25.1654C83.6372 24.9753 84.3258 24.8803 85.0892 24.8803C85.8775 24.8803 86.5801 24.9816 87.1971 25.1841C87.8172 25.3866 88.3406 25.6795 88.7675 26.0628C89.1975 26.4429 89.5262 26.9103 89.7537 27.4649C89.9811 28.0196 90.0949 28.649 90.0949 29.3532V35.4666H87.2952V32.7744H87.3093C87.2345 33.0798 87.1317 33.3664 87.0008 33.6344C86.8699 33.8993 86.7141 34.1423 86.5334 34.3635C86.3527 34.5816 86.147 34.7764 85.9165 34.9478C85.689 35.1191 85.4413 35.2656 85.1733 35.3871C84.9053 35.5055 84.6171 35.5943 84.3086 35.6535C84.0002 35.7158 83.6777 35.747 83.3412 35.747C82.8146 35.747 82.3347 35.6738 81.9016 35.5273C81.4716 35.384 81.1024 35.1799 80.7939 34.9151C80.4886 34.6471 80.2517 34.3261 80.0835 33.9522C79.9152 33.5752 79.8311 33.1592 79.8311 32.7043C79.8311 32.2151 79.9277 31.7789 80.1209 31.3956C80.3172 31.0093 80.5976 30.6821 80.9622 30.4141C81.3298 30.1462 81.7785 29.9421 82.3082 29.8019C82.8379 29.6616 83.4393 29.5915 84.1123 29.5915H87.3654V31.2928H84.4021C84.1123 31.2928 83.8568 31.3177 83.6356 31.3676C83.4175 31.4143 83.2337 31.4876 83.0841 31.5873C82.9345 31.6839 82.8208 31.8038 82.7429 31.9472C82.6681 32.0905 82.6307 32.2572 82.6307 32.4473C82.6307 32.6404 82.6712 32.8134 82.7523 32.9661C82.8333 33.1156 82.9501 33.2418 83.1028 33.3446C83.2555 33.4475 83.444 33.5269 83.6683 33.583C83.8958 33.636 84.1544 33.6625 84.4442 33.6625C84.7184 33.6625 84.9786 33.6391 85.2247 33.5924C85.4709 33.5456 85.6999 33.4786 85.9118 33.3914C86.1237 33.3041 86.3137 33.1997 86.482 33.0782C86.6534 32.9536 86.7998 32.8149 86.9213 32.6623C87.0429 32.5065 87.1348 32.3398 87.1971 32.1622C87.2625 31.9845 87.2952 31.796 87.2952 31.5966V29.3532C87.2952 28.998 87.2438 28.6801 87.141 28.3997C87.0382 28.1193 86.8902 27.8825 86.697 27.6893C86.5038 27.493 86.2654 27.3434 85.9819 27.2406C85.7015 27.1378 85.3821 27.0863 85.0238 27.0863C84.6623 27.0863 84.3492 27.13 84.0843 27.2172C83.8226 27.3013 83.606 27.4229 83.4346 27.5818C83.2633 27.7407 83.1355 27.9354 83.0514 28.166C82.9673 28.3935 82.9252 28.6505 82.9252 28.9372H80.1349Z" fill="#190318"/>
<path d="M94.7866 30.3113C94.7866 30.788 94.8411 31.2134 94.9501 31.5873C95.0592 31.9581 95.2165 32.2712 95.4222 32.5267C95.6278 32.7822 95.8802 32.977 96.1794 33.1109C96.4785 33.2418 96.8181 33.3072 97.1983 33.3072C97.5161 33.3072 97.7965 33.2605 98.0396 33.167C98.2857 33.0736 98.496 32.9427 98.6705 32.7744C98.8481 32.6031 98.993 32.4005 99.1052 32.1668C99.2174 31.9331 99.2999 31.6761 99.3529 31.3956H102.143C102.059 32.0344 101.883 32.6202 101.615 33.153C101.35 33.6858 101.004 34.1439 100.577 34.5271C100.154 34.9104 99.6567 35.2095 99.0865 35.4245C98.5163 35.6395 97.8853 35.747 97.1936 35.747C96.6795 35.747 96.1934 35.6894 95.7353 35.5741C95.2773 35.4588 94.8551 35.2905 94.4687 35.0693C94.0824 34.8481 93.7349 34.5801 93.4265 34.2654C93.118 33.9476 92.8547 33.5877 92.6366 33.1857C92.4216 32.7807 92.2564 32.3382 92.1412 31.8584C92.0259 31.3754 91.9682 30.8597 91.9682 30.3113C91.9682 29.7629 92.0259 29.2488 92.1412 28.7689C92.2564 28.286 92.4216 27.8435 92.6366 27.4416C92.8547 27.0396 93.118 26.6797 93.4265 26.3619C93.7349 26.0441 94.0824 25.7761 94.4687 25.558C94.8551 25.3368 95.2773 25.1685 95.7353 25.0532C96.1934 24.9379 96.6795 24.8803 97.1936 24.8803C97.8853 24.8803 98.5163 24.9878 99.0865 25.2028C99.6567 25.4178 100.154 25.7169 100.577 26.1002C101.004 26.4834 101.35 26.9415 101.615 27.4743C101.883 28.0071 102.059 28.5929 102.143 29.2316H99.3529C99.2999 28.9512 99.2174 28.6942 99.1052 28.4605C98.993 28.2237 98.8481 28.0211 98.6705 27.8529C98.496 27.6846 98.2857 27.5537 98.0396 27.4603C97.7965 27.3668 97.5161 27.32 97.1983 27.32C96.8181 27.32 96.4785 27.387 96.1794 27.521C95.8802 27.6519 95.6278 27.8451 95.4222 28.1006C95.2165 28.353 95.0592 28.6661 94.9501 29.04C94.8411 29.4108 94.7866 29.8346 94.7866 30.3113Z" fill="#190318"/>
<path d="M106.513 30.4983C106.513 30.9656 106.572 31.3863 106.69 31.7602C106.812 32.131 106.985 32.4457 107.209 32.7043C107.433 32.9629 107.706 33.1624 108.027 33.3026C108.351 33.4397 108.717 33.5082 109.125 33.5082C109.396 33.5082 109.646 33.4771 109.873 33.4147C110.104 33.3493 110.311 33.2527 110.495 33.125C110.682 32.9941 110.847 32.8336 110.99 32.6436C111.137 32.4504 111.26 32.2276 111.359 31.9752H113.991C113.85 32.561 113.631 33.0876 113.332 33.555C113.033 34.0223 112.67 34.4181 112.243 34.7421C111.819 35.0662 111.336 35.3139 110.794 35.4853C110.255 35.6598 109.672 35.747 109.046 35.747C108.267 35.747 107.558 35.6161 106.919 35.3544C106.28 35.0927 105.732 34.7234 105.274 34.2467C104.819 33.7668 104.465 33.1935 104.213 32.5267C103.964 31.8568 103.839 31.1152 103.839 30.302C103.839 29.4949 103.962 28.758 104.208 28.0912C104.458 27.4244 104.808 26.8542 105.26 26.3806C105.712 25.9039 106.254 25.5346 106.886 25.2729C107.519 25.0112 108.22 24.8803 108.99 24.8803C109.75 24.8803 110.44 25.0096 111.06 25.2682C111.683 25.5237 112.215 25.8883 112.654 26.3619C113.096 26.8324 113.438 27.4011 113.678 28.0679C113.917 28.7315 114.037 29.4716 114.037 30.2879C114.037 30.4126 114.034 30.5388 114.028 30.6665C114.022 30.7912 114.012 30.9189 114 31.0498H105.573V29.3204H112.523L111.387 31.0217C111.4 30.9002 111.408 30.7802 111.411 30.6618C111.417 30.5403 111.42 30.4219 111.42 30.3066C111.42 29.7769 111.367 29.3127 111.261 28.9138C111.158 28.5119 111.006 28.1754 110.803 27.9043C110.601 27.6332 110.348 27.4291 110.046 27.292C109.747 27.1518 109.399 27.0817 109.004 27.0817C108.611 27.0817 108.261 27.1502 107.952 27.2873C107.644 27.4244 107.382 27.6238 107.167 27.8856C106.955 28.1442 106.793 28.462 106.681 28.839C106.569 29.2161 106.513 29.6429 106.513 30.1197V30.4983Z" fill="#190318"/>
<path fill-rule="evenodd" clip-rule="evenodd" d="M0.762852 7.89774C2.79954 4.64591 9.62808 3.50609 17.5851 5.33582C16.9208 6.03924 16.4136 6.89073 16.0302 7.69703C14.4165 7.37402 12.8697 7.18523 11.4291 7.12216C9.00423 7.01605 6.97761 7.26766 5.4794 7.74942C3.94323 8.24342 3.23624 8.88296 2.97012 9.33932C2.9692 9.34091 2.96837 9.34254 2.96745 9.34414C1.19301 14.4111 13.7029 29.1738 15.974 22.4825C16.1484 21.9688 16.1733 21.573 16.3252 21.0404C16.5169 20.3683 16.7747 19.6163 17.1152 18.9173C17.4484 18.2332 17.9041 17.5092 18.5327 16.9797C19.2499 16.3744 20.1646 16.0554 21.1019 16.0843C22.0392 16.1136 22.9337 16.4887 23.6125 17.1384C23.6178 17.1435 23.6233 17.1487 23.6285 17.1539C25.0543 18.5658 25.0332 20.8255 23.8137 22.2753C23.2856 22.9058 22.5638 23.3628 21.8817 23.6969C21.163 24.049 20.5182 24.1202 19.702 24.5061C10.23 28.9846 36.1931 36.9704 42.2665 32.3728C42.6885 32.0533 42.7498 31.512 42.709 31.113C42.678 30.8926 42.637 30.6527 42.5818 30.3925C42.2475 28.8154 41.4979 26.8501 40.2858 24.7133C39.4757 23.2852 38.4757 21.8113 37.2915 20.3548C37.3643 20.0141 37.4128 19.6764 37.443 19.3513C37.5363 18.3479 37.4731 17.3327 37.3612 16.4529C43.914 23.312 46.5718 31.2691 44.962 34.3452L44.9094 34.4411C42.6032 38.4436 28.5973 39.4433 16.5323 32.4129L16.2456 32.2443C4.02142 24.9726 -2.17623 12.9349 0.6939 8.01213L0.762852 7.89774ZM21.0209 18.7043C20.7272 18.6953 20.4403 18.7954 20.2154 18.9854L20.2141 18.9868C19.9829 19.1815 19.7218 19.5382 19.4639 20.0678C19.2132 20.5824 19.0051 21.1772 18.8385 21.7611C18.811 21.8576 18.785 21.9532 18.7602 22.0471C18.8539 22.0222 18.9493 21.9964 19.0456 21.9688C19.628 21.8018 20.2213 21.5932 20.7344 21.3418C21.2625 21.0831 21.6184 20.8213 21.8125 20.5895L21.8152 20.5863C22.2188 20.1074 22.1767 19.4088 21.7986 19.0263C21.5873 18.8281 21.3108 18.7133 21.0209 18.7043Z" fill="#190318"/>
<path fill-rule="evenodd" clip-rule="evenodd" d="M39.4469 0.000309009C40.1655 0.00477778 40.746 0.590299 40.746 1.31094C40.746 4.55692 39.8404 10.2071 34.0553 14.5043C34.1477 14.9049 34.2487 15.4117 34.3201 15.9673C34.4049 16.6266 34.4531 17.3903 34.3832 18.1449C34.3143 18.8883 34.122 19.7201 33.6469 20.4348L33.6458 20.4364C32.8363 21.65 31.3229 22.341 30.2947 22.715C29.7371 22.9178 29.2224 23.0615 28.8481 23.1546C28.66 23.2014 28.5047 23.236 28.3942 23.2594C28.3391 23.2711 28.2947 23.2799 28.263 23.2861C28.2472 23.2892 28.2343 23.2918 28.2248 23.2936C28.2201 23.2945 28.2161 23.2952 28.213 23.2957L28.209 23.2965L28.2069 23.2971C27.8257 23.3664 27.4326 23.2625 27.1352 23.0135C26.8378 22.7645 26.6659 22.3958 26.6659 22.0073V16.8011L23.9917 14.1195H18.8C18.4125 14.1194 18.045 13.9471 17.7967 13.6488C17.5484 13.3505 17.4448 12.957 17.514 12.5747L17.5153 12.5681C17.5159 12.565 17.5166 12.561 17.5174 12.5563C17.5192 12.5468 17.5218 12.5339 17.5249 12.5181C17.5311 12.4863 17.54 12.4419 17.5516 12.3866C17.5749 12.2759 17.6095 12.1203 17.6561 11.9317C17.749 11.5563 17.8921 11.0398 18.0944 10.4805C18.4674 9.4495 19.1565 7.93213 20.3667 7.12029L20.3685 7.11922C21.0812 6.64285 21.9104 6.44989 22.6517 6.38079C23.4043 6.31065 24.1659 6.35916 24.8234 6.44413C25.3828 6.51642 25.8926 6.61855 26.2939 6.71192C27.688 4.76679 29.4998 3.15395 31.6005 1.99538L31.8266 1.87298C34.1722 0.627808 36.7903 -0.0161842 39.4469 0.000309009ZM31.6826 15.9913C30.9014 16.4153 30.0994 16.8004 29.2799 17.1451V20.2942C29.3207 20.2799 29.3621 20.2656 29.4034 20.2506C30.3903 19.8916 31.1702 19.4326 31.4728 18.979C31.6163 18.7623 31.7333 18.4102 31.7804 17.9025C31.8265 17.4047 31.7975 16.8474 31.7275 16.3024C31.7139 16.1968 31.6985 16.0927 31.6826 15.9913ZM38.0689 2.6825C36.3172 2.85008 34.6112 3.3608 33.0496 4.18982L32.8604 4.29218C30.8481 5.40197 29.1523 7.00973 27.9346 8.96223C27.9321 8.96613 27.9296 8.9701 27.9271 8.97398C27.2114 10.0947 26.5906 11.2733 26.0702 12.4967L28.2873 14.72C29.5224 14.1994 30.7129 13.5773 31.8464 12.8596C36.5334 9.70128 37.8 5.59847 38.0689 2.6825ZM24.4894 9.04401C23.9459 8.97377 23.39 8.94482 22.8936 8.99109C22.3873 9.03829 22.0361 9.1551 21.82 9.29897C21.3676 9.60249 20.9101 10.3849 20.5521 11.3745C20.5372 11.4159 20.5225 11.4573 20.5083 11.4982H23.6531C24.0013 10.6769 24.3904 9.87366 24.8189 9.09185C24.7116 9.07473 24.6014 9.05849 24.4894 9.04401Z" fill="#190318"/>
</svg>
