<svg width="149" height="40" viewBox="0 0 149 40" fill="none" xmlns="http://www.w3.org/2000/svg">
<path d="M57.161 17.6599H54.0762L58.6847 4.29272H62.8257L67.3687 17.6599H64.2185L60.4467 5.25086H60.9982L57.161 17.6599ZM56.7871 14.7201V12.3084H64.9944V14.7201H56.7871Z" fill="white"/>
<path d="M71.9236 4.29272V17.6599H68.9698V4.29272H71.9236Z" fill="white"/>
<path d="M79.4567 4.29272H82.4106V15.3791L82.1862 15.1454H88.4866V17.6599H79.4567V4.29272Z" fill="white"/>
<path d="M90.5374 11.1306C90.5374 10.5074 90.6511 9.94496 90.8786 9.4433C91.1092 8.94164 91.4379 8.51632 91.8648 8.16734C92.2948 7.81525 92.8151 7.54572 93.4258 7.35877C94.0397 7.1687 94.7283 7.07366 95.4917 7.07366C96.28 7.07366 96.9826 7.17493 97.5996 7.37746C98.2197 7.57999 98.7431 7.87289 99.17 8.25615C99.6 8.63628 99.9287 9.10367 100.156 9.6583C100.384 10.2129 100.497 10.8423 100.497 11.5465V17.6599H97.6977V14.9678H97.7118C97.637 15.2732 97.5342 15.5598 97.4033 15.8278C97.2724 16.0926 97.1166 16.3357 96.9359 16.5569C96.7552 16.775 96.5495 16.9698 96.319 17.1411C96.0915 17.3125 95.8438 17.459 95.5758 17.5805C95.3078 17.6989 95.0196 17.7877 94.7111 17.8469C94.4027 17.9092 94.0802 17.9404 93.7437 17.9404C93.2171 17.9404 92.7372 17.8671 92.3041 17.7207C91.8741 17.5774 91.5049 17.3733 91.1964 17.1084C90.891 16.8405 90.6542 16.5195 90.486 16.1456C90.3177 15.7686 90.2336 15.3526 90.2336 14.8977C90.2336 14.4085 90.3302 13.9723 90.5234 13.589C90.7197 13.2026 91.0001 12.8755 91.3647 12.6075C91.7323 12.3395 92.181 12.1354 92.7107 11.9952C93.2404 11.855 93.8418 11.7849 94.5148 11.7849H97.7678V13.4862H94.8046C94.5148 13.4862 94.2593 13.5111 94.0381 13.561C93.82 13.6077 93.6362 13.6809 93.4866 13.7806C93.337 13.8772 93.2233 13.9972 93.1454 14.1405C93.0706 14.2839 93.0332 14.4506 93.0332 14.6406C93.0332 14.8338 93.0737 15.0067 93.1548 15.1594C93.2358 15.309 93.3526 15.4352 93.5053 15.538C93.658 15.6408 93.8465 15.7203 94.0708 15.7764C94.2983 15.8293 94.5569 15.8558 94.8467 15.8558C95.1209 15.8558 95.3811 15.8325 95.6272 15.7857C95.8734 15.739 96.1024 15.672 96.3143 15.5847C96.5262 15.4975 96.7162 15.3931 96.8845 15.2716C97.0559 15.147 97.2023 15.0083 97.3238 14.8556C97.4453 14.6998 97.5373 14.5331 97.5996 14.3555C97.665 14.1779 97.6977 13.9894 97.6977 13.79V11.5465C97.6977 11.1913 97.6463 10.8735 97.5435 10.5931C97.4407 10.3126 97.2927 10.0758 97.0995 9.88265C96.9063 9.68634 96.6679 9.53678 96.3844 9.43396C96.104 9.33113 95.7846 9.27972 95.4262 9.27972C95.0648 9.27972 94.7517 9.32334 94.4868 9.41059C94.2251 9.49472 94.0085 9.61624 93.8371 9.77515C93.6658 9.93406 93.538 10.1288 93.4539 10.3594C93.3698 10.5868 93.3277 10.8439 93.3277 11.1306H90.5374Z" fill="white"/>
<path d="M109.582 12.7617V7.35409H112.382V17.6599H109.582V14.5098L109.596 14.4957C109.491 15.0535 109.332 15.5474 109.12 15.9774C108.911 16.4042 108.652 16.7626 108.344 17.0523C108.035 17.3421 107.682 17.5618 107.283 17.7113C106.884 17.864 106.443 17.9404 105.96 17.9404C105.406 17.9404 104.915 17.8407 104.488 17.6412C104.061 17.4418 103.704 17.1474 103.418 16.7579C103.131 16.3684 102.913 15.8885 102.763 15.3183C102.614 14.745 102.539 14.086 102.539 13.3413V7.35409H105.339V12.8739C105.339 13.3133 105.379 13.6981 105.46 14.0284C105.544 14.3555 105.669 14.6282 105.834 14.8463C106.002 15.0644 106.211 15.228 106.46 15.337C106.713 15.4461 107.007 15.5006 107.344 15.5006C107.581 15.5006 107.8 15.4741 108.003 15.4212C108.205 15.3682 108.389 15.2903 108.554 15.1875C108.722 15.0815 108.87 14.9522 108.998 14.7995C109.126 14.6437 109.232 14.4646 109.316 14.262C109.403 14.0564 109.469 13.8289 109.512 13.5797C109.559 13.3304 109.582 13.0577 109.582 12.7617Z" fill="white"/>
<path d="M117.311 12.2523V17.6599H114.511V7.35409H117.311V10.5043L117.297 10.5183C117.403 9.96054 117.56 9.46823 117.769 9.04135C117.981 8.61136 118.241 8.25147 118.55 7.96169C118.858 7.67191 119.212 7.45224 119.611 7.30268C120.009 7.15 120.45 7.07366 120.933 7.07366C121.488 7.07366 121.979 7.17337 122.405 7.37279C122.832 7.5722 123.189 7.86666 123.476 8.25615C123.762 8.64563 123.981 9.12704 124.13 9.70037C124.28 10.2706 124.354 10.928 124.354 11.6727V17.6599H121.555V12.1401C121.555 11.7008 121.513 11.3175 121.429 10.9903C121.348 10.6601 121.223 10.3859 121.055 10.1678C120.89 9.94964 120.681 9.78605 120.428 9.677C120.179 9.56794 119.886 9.51341 119.55 9.51341C119.313 9.51341 119.093 9.5399 118.891 9.59287C118.688 9.64584 118.503 9.72529 118.335 9.83123C118.169 9.93406 118.023 10.0634 117.895 10.2192C117.767 10.3718 117.66 10.551 117.573 10.7567C117.489 10.9592 117.423 11.1851 117.376 11.4344C117.333 11.6836 117.311 11.9563 117.311 12.2523Z" fill="white"/>
<path d="M129.04 12.5047C129.04 12.9814 129.095 13.4067 129.204 13.7806C129.313 14.1514 129.47 14.4646 129.676 14.7201C129.882 14.9756 130.134 15.1703 130.433 15.3043C130.732 15.4352 131.072 15.5006 131.452 15.5006C131.77 15.5006 132.05 15.4539 132.293 15.3604C132.539 15.2669 132.75 15.1361 132.924 14.9678C133.102 14.7964 133.247 14.5939 133.359 14.3602C133.471 14.1265 133.554 13.8694 133.607 13.589H136.397C136.313 14.2278 136.137 14.8136 135.869 15.3464C135.604 15.8792 135.258 16.3372 134.831 16.7205C134.407 17.1037 133.91 17.4029 133.34 17.6179C132.77 17.8329 132.139 17.9404 131.447 17.9404C130.933 17.9404 130.447 17.8827 129.989 17.7674C129.531 17.6521 129.109 17.4839 128.722 17.2627C128.336 17.0414 127.989 16.7735 127.68 16.4588C127.372 16.1409 127.108 15.781 126.89 15.3791C126.675 14.974 126.51 14.5316 126.395 14.0517C126.28 13.5688 126.222 13.0531 126.222 12.5047C126.222 11.9563 126.28 11.4422 126.395 10.9623C126.51 10.4793 126.675 10.0369 126.89 9.63493C127.108 9.23298 127.372 8.87309 127.68 8.55527C127.989 8.23745 128.336 7.96948 128.722 7.75137C129.109 7.53014 129.531 7.36188 129.989 7.24659C130.447 7.1313 130.933 7.07366 131.447 7.07366C132.139 7.07366 132.77 7.18116 133.34 7.39616C133.91 7.61115 134.407 7.91028 134.831 8.29354C135.258 8.67679 135.604 9.13483 135.869 9.66765C136.137 10.2005 136.313 10.7863 136.397 11.425H133.607C133.554 11.1446 133.471 10.8875 133.359 10.6538C133.247 10.417 133.102 10.2145 132.924 10.0462C132.75 9.87797 132.539 9.7471 132.293 9.65363C132.05 9.56015 131.77 9.51341 131.452 9.51341C131.072 9.51341 130.732 9.5804 130.433 9.71439C130.134 9.84526 129.882 10.0384 129.676 10.2939C129.47 10.5463 129.313 10.8595 129.204 11.2334C129.095 11.6042 129.04 12.0279 129.04 12.5047Z" fill="white"/>
<path d="M141.107 12.2523V17.6599H138.308V3.82533H141.107V10.5043L141.093 10.5183C141.199 9.96054 141.357 9.46823 141.565 9.04135C141.777 8.61136 142.038 8.25147 142.346 7.96169C142.655 7.67191 143.008 7.45224 143.407 7.30268C143.806 7.15 144.247 7.07366 144.73 7.07366C145.284 7.07366 145.775 7.17337 146.202 7.37279C146.629 7.5722 146.986 7.86666 147.272 8.25615C147.559 8.64563 147.777 9.12704 147.927 9.70037C148.076 10.2706 148.151 10.928 148.151 11.6727V17.6599H145.351V12.1401C145.351 11.7008 145.309 11.3175 145.225 10.9903C145.144 10.6601 145.019 10.3859 144.851 10.1678C144.686 9.94964 144.477 9.78605 144.225 9.677C143.976 9.56794 143.683 9.51341 143.346 9.51341C143.109 9.51341 142.89 9.5399 142.687 9.59287C142.485 9.64584 142.299 9.72529 142.131 9.83123C141.966 9.93406 141.819 10.0634 141.692 10.2192C141.564 10.3718 141.456 10.551 141.369 10.7567C141.285 10.9592 141.22 11.1851 141.173 11.4344C141.129 11.6836 141.107 11.9563 141.107 12.2523Z" fill="white"/>
<path d="M60.2504 21.8956C61.1073 21.8956 61.8785 21.9984 62.564 22.204C63.2526 22.4097 63.8368 22.7073 64.3166 23.0968C64.7996 23.4831 65.1704 23.9552 65.429 24.5129C65.6876 25.0676 65.817 25.6939 65.817 26.3918H62.9846C62.9846 26.0709 62.9176 25.7811 62.7836 25.5225C62.6528 25.2639 62.4658 25.0442 62.2228 24.8635C61.9797 24.6827 61.6868 24.5441 61.3441 24.4475C61.0044 24.3478 60.6274 24.2979 60.213 24.2979C59.9793 24.2979 59.7503 24.3135 59.5259 24.3447C59.3047 24.3758 59.0944 24.4226 58.895 24.4849C58.6956 24.5472 58.5102 24.6251 58.3388 24.7186C58.1705 24.8121 58.0256 24.9211 57.9041 25.0457C57.7826 25.1704 57.686 25.3122 57.6143 25.4711C57.5458 25.6269 57.5115 25.7982 57.5115 25.9852C57.5115 26.1628 57.5411 26.317 57.6003 26.4479C57.6595 26.5788 57.7452 26.6925 57.8574 26.7891C57.9727 26.8857 58.1144 26.9698 58.2827 27.0415C58.451 27.11 58.6473 27.1708 58.8716 27.2238C59.096 27.2767 59.3452 27.3266 59.6194 27.3733C59.8936 27.4201 60.1943 27.4668 60.5215 27.5135L61.0636 27.593C61.4376 27.646 61.8255 27.7083 62.2274 27.78C62.6294 27.8485 63.022 27.942 63.4052 28.0604C63.7916 28.1757 64.1577 28.3237 64.5036 28.5044C64.8495 28.682 65.1533 28.9079 65.415 29.1821C65.6767 29.4532 65.8839 29.7819 66.0366 30.1683C66.1893 30.5547 66.2656 31.0111 66.2656 31.5377C66.2656 32.2419 66.1254 32.8604 65.845 33.3933C65.5677 33.9261 65.172 34.3732 64.6578 34.7346C64.1468 35.093 63.5283 35.3641 62.8023 35.5479C62.0763 35.7317 61.2662 35.8237 60.3719 35.8237C59.4091 35.8237 58.5538 35.7193 57.806 35.5105C57.0613 35.3017 56.4334 34.9995 55.9224 34.6038C55.4145 34.2081 55.0281 33.7251 54.7633 33.1549C54.5016 32.5816 54.3707 31.9319 54.3707 31.2059H57.203C57.203 31.5518 57.2763 31.8618 57.4227 32.136C57.5692 32.4102 57.7779 32.6423 58.049 32.8324C58.3201 33.0225 58.6488 33.1689 59.0352 33.2717C59.4247 33.3714 59.8625 33.4213 60.3485 33.4213C60.7661 33.4213 61.1556 33.3839 61.517 33.3091C61.8816 33.2312 62.1978 33.1175 62.4658 32.9679C62.7369 32.8152 62.9503 32.6252 63.1061 32.3977C63.2619 32.1703 63.3398 31.9039 63.3398 31.5985C63.3398 31.4053 63.3102 31.2386 63.251 31.0984C63.1918 30.9551 63.1046 30.832 62.9893 30.7292C62.8771 30.6232 62.7369 30.5344 62.5686 30.4627C62.4035 30.3911 62.2119 30.3303 61.9937 30.2805C61.7787 30.2275 61.5404 30.1808 61.2786 30.1402C61.0169 30.0966 60.7334 30.053 60.428 30.0094L59.7222 29.9066C59.3546 29.8567 58.9713 29.7991 58.5725 29.7336C58.1768 29.6682 57.7888 29.5825 57.4087 29.4766C57.0285 29.3675 56.6671 29.2288 56.3244 29.0606C55.9847 28.8892 55.6856 28.6727 55.427 28.4109C55.1715 28.1492 54.9674 27.8345 54.8147 27.4668C54.662 27.0991 54.5857 26.6613 54.5857 26.1535C54.5857 25.6923 54.6511 25.267 54.782 24.8775C54.9129 24.4849 55.0982 24.1312 55.3382 23.8165C55.5812 23.4987 55.8726 23.2214 56.2122 22.9846C56.5549 22.7447 56.9351 22.5452 57.3526 22.3863C57.7733 22.2243 58.2266 22.1028 58.7127 22.0218C59.2019 21.9376 59.7145 21.8956 60.2504 21.8956Z" fill="white"/>
<path d="M70.9011 25.2374V28.4156L70.8871 28.4249C70.9992 27.8765 71.1597 27.3873 71.3685 26.9574C71.5772 26.5274 71.8281 26.1644 72.121 25.8683C72.417 25.5723 72.7535 25.3464 73.1305 25.1906C73.5107 25.0348 73.9235 24.9569 74.3691 24.9569C74.7773 24.9569 75.1636 25.0177 75.5282 25.1392C75.8928 25.2576 76.2293 25.429 76.5377 25.6533C76.8462 25.8777 77.1235 26.1519 77.3697 26.4759C77.619 26.7969 77.8293 27.1583 78.0007 27.5603C78.172 27.9622 78.3029 28.4016 78.3933 28.8783C78.4867 29.3519 78.5335 29.8551 78.5335 30.388C78.5335 30.9208 78.4867 31.4256 78.3933 31.9023C78.3029 32.3759 78.172 32.8152 78.0007 33.2203C77.8293 33.6223 77.619 33.9837 77.3697 34.3046C77.1235 34.6256 76.8462 34.8998 76.5377 35.1273C76.2293 35.3516 75.8928 35.523 75.5282 35.6414C75.1636 35.7629 74.7773 35.8237 74.3691 35.8237C73.9235 35.8237 73.5107 35.7458 73.1305 35.59C72.7535 35.4342 72.417 35.2083 72.121 34.9123C71.8281 34.6162 71.5772 34.2532 71.3685 33.8232C71.1597 33.3901 70.9992 32.8994 70.8871 32.351L70.9011 32.365V39.0767H68.1014V25.2374H70.9011ZM70.9011 30.388C70.9011 30.7089 70.9245 31.0065 70.9712 31.2807C71.021 31.5549 71.0927 31.8041 71.1862 32.0285C71.2797 32.2528 71.395 32.4522 71.5321 32.6267C71.6723 32.7981 71.8327 32.943 72.0135 33.0614C72.1942 33.1767 72.3936 33.2639 72.6117 33.3231C72.8329 33.3823 73.0713 33.4119 73.3268 33.4119C73.7194 33.4119 74.0637 33.3481 74.3597 33.2203C74.6589 33.0926 74.9081 32.9009 75.1075 32.6454C75.307 32.3899 75.4581 32.0737 75.5609 31.6966C75.6637 31.3196 75.7152 30.8834 75.7152 30.388C75.7152 29.8925 75.6637 29.4563 75.5609 29.0793C75.4612 28.7023 75.3101 28.3876 75.1075 28.1352C74.9081 27.8797 74.6589 27.688 74.3597 27.5603C74.0637 27.4325 73.7194 27.3687 73.3268 27.3687C73.0713 27.3687 72.8329 27.3983 72.6117 27.4575C72.3936 27.5167 72.1942 27.6055 72.0135 27.7239C71.8327 27.8392 71.6723 27.9825 71.5321 28.1539C71.395 28.3252 71.2797 28.5231 71.1862 28.7474C71.0927 28.9718 71.021 29.2211 70.9712 29.4953C70.9245 29.7695 70.9011 30.067 70.9011 30.388Z" fill="white"/>
<path d="M80.3791 29.0138C80.3791 28.3907 80.4928 27.8282 80.7203 27.3266C80.9508 26.8249 81.2796 26.3996 81.7064 26.0506C82.1364 25.6985 82.6568 25.429 83.2675 25.2421C83.8813 25.052 84.57 24.9569 85.3334 24.9569C86.1217 24.9569 86.8243 25.0582 87.4413 25.2607C88.0613 25.4633 88.5848 25.7562 89.0117 26.1394C89.4417 26.5196 89.7704 26.987 89.9979 27.5416C90.2253 28.0962 90.3391 28.7256 90.3391 29.4298V35.5432H87.5394V32.8511H87.5534C87.4787 33.1564 87.3758 33.4431 87.245 33.7111C87.1141 33.9759 86.9583 34.219 86.7776 34.4402C86.5969 34.6583 86.3912 34.8531 86.1606 35.0244C85.9332 35.1958 85.6855 35.3422 85.4175 35.4638C85.1495 35.5822 84.8613 35.671 84.5528 35.7302C84.2443 35.7925 83.9219 35.8237 83.5853 35.8237C83.0587 35.8237 82.5789 35.7504 82.1458 35.604C81.7158 35.4606 81.3466 35.2566 81.0381 34.9917C80.7327 34.7237 80.4959 34.4028 80.3277 34.0289C80.1594 33.6519 80.0753 33.2359 80.0753 32.781C80.0753 32.2918 80.1719 31.8556 80.365 31.4723C80.5614 31.0859 80.8418 30.7588 81.2063 30.4908C81.574 30.2228 82.0227 30.0187 82.5524 29.8785C83.0821 29.7383 83.6835 29.6682 84.3565 29.6682H87.6095V31.3695H84.6463C84.3565 31.3695 84.101 31.3944 83.8798 31.4443C83.6617 31.491 83.4778 31.5642 83.3283 31.6639C83.1787 31.7605 83.065 31.8805 82.9871 32.0238C82.9123 32.1671 82.8749 32.3338 82.8749 32.5239C82.8749 32.7171 82.9154 32.89 82.9964 33.0427C83.0774 33.1923 83.1943 33.3185 83.347 33.4213C83.4996 33.5241 83.6882 33.6036 83.9125 33.6597C84.14 33.7126 84.3986 33.7391 84.6884 33.7391C84.9626 33.7391 85.2227 33.7157 85.4689 33.669C85.7151 33.6223 85.9441 33.5553 86.156 33.468C86.3678 33.3808 86.5579 33.2764 86.7262 33.1549C86.8975 33.0302 87.044 32.8916 87.1655 32.7389C87.287 32.5831 87.3789 32.4164 87.4413 32.2388C87.5067 32.0612 87.5394 31.8727 87.5394 31.6733V29.4298C87.5394 29.0746 87.488 28.7568 87.3852 28.4764C87.2824 28.1959 87.1343 27.9591 86.9412 27.7659C86.748 27.5696 86.5096 27.4201 86.2261 27.3172C85.9456 27.2144 85.6263 27.163 85.2679 27.163C84.9065 27.163 84.5933 27.2066 84.3285 27.2939C84.0667 27.378 83.8502 27.4995 83.6788 27.6584C83.5074 27.8173 83.3797 28.0121 83.2956 28.2427C83.2114 28.4701 83.1694 28.7272 83.1694 29.0138H80.3791Z" fill="white"/>
<path d="M95.0307 30.388C95.0307 30.8647 95.0853 31.29 95.1943 31.6639C95.3034 32.0347 95.4607 32.3479 95.6664 32.6034C95.872 32.8589 96.1244 33.0536 96.4235 33.1876C96.7227 33.3185 97.0623 33.3839 97.4424 33.3839C97.7603 33.3839 98.0407 33.3372 98.2837 33.2437C98.5299 33.1502 98.7402 33.0193 98.9147 32.8511C99.0923 32.6797 99.2372 32.4772 99.3494 32.2435C99.4615 32.0098 99.5441 31.7527 99.5971 31.4723H102.387C102.303 32.1111 102.127 32.6968 101.859 33.2297C101.594 33.7625 101.249 34.2205 100.822 34.6038C100.398 34.987 99.9009 35.2862 99.3307 35.5012C98.7605 35.7162 98.1295 35.8237 97.4378 35.8237C96.9236 35.8237 96.4376 35.766 95.9795 35.6507C95.5215 35.5354 95.0993 35.3672 94.7129 35.1459C94.3265 34.9247 93.9791 34.6567 93.6706 34.342C93.3622 34.0242 93.0989 33.6643 92.8808 33.2624C92.6658 32.8573 92.5006 32.4149 92.3853 31.935C92.27 31.452 92.2124 30.9364 92.2124 30.388C92.2124 29.8396 92.27 29.3254 92.3853 28.8456C92.5006 28.3626 92.6658 27.9202 92.8808 27.5182C93.0989 27.1163 93.3622 26.7564 93.6706 26.4386C93.9791 26.1207 94.3265 25.8528 94.7129 25.6347C95.0993 25.4134 95.5215 25.2452 95.9795 25.1299C96.4376 25.0146 96.9236 24.9569 97.4378 24.9569C98.1295 24.9569 98.7605 25.0644 99.3307 25.2794C99.9009 25.4944 100.398 25.7936 100.822 26.1768C101.249 26.5601 101.594 27.0181 101.859 27.5509C102.127 28.0838 102.303 28.6695 102.387 29.3083H99.5971C99.5441 29.0279 99.4615 28.7708 99.3494 28.5371C99.2372 28.3003 99.0923 28.0978 98.9147 27.9295C98.7402 27.7613 98.5299 27.6304 98.2837 27.5369C98.0407 27.4434 97.7603 27.3967 97.4424 27.3967C97.0623 27.3967 96.7227 27.4637 96.4235 27.5977C96.1244 27.7285 95.872 27.9217 95.6664 28.1772C95.4607 28.4296 95.3034 28.7428 95.1943 29.1167C95.0853 29.4875 95.0307 29.9112 95.0307 30.388Z" fill="white"/>
<path d="M106.757 30.5749C106.757 31.0423 106.816 31.4629 106.934 31.8369C107.056 32.2076 107.229 32.5224 107.453 32.781C107.677 33.0396 107.95 33.239 108.271 33.3792C108.595 33.5163 108.961 33.5849 109.369 33.5849C109.64 33.5849 109.89 33.5537 110.117 33.4914C110.348 33.426 110.555 33.3294 110.739 33.2016C110.926 33.0708 111.091 32.9103 111.234 32.7202C111.381 32.527 111.504 32.3042 111.603 32.0519H114.235C114.095 32.6376 113.875 33.1642 113.576 33.6316C113.277 34.099 112.914 34.4947 112.487 34.8188C112.063 35.1428 111.58 35.3905 111.038 35.5619C110.499 35.7364 109.916 35.8237 109.29 35.8237C108.511 35.8237 107.802 35.6928 107.163 35.431C106.525 35.1693 105.976 34.8001 105.518 34.3233C105.063 33.8435 104.71 33.2702 104.457 32.6034C104.208 31.9334 104.083 31.1919 104.083 30.3786C104.083 29.5716 104.206 28.8347 104.452 28.1679C104.702 27.5011 105.052 26.9309 105.504 26.4573C105.956 25.9805 106.498 25.6113 107.131 25.3495C107.763 25.0878 108.464 24.9569 109.234 24.9569C109.994 24.9569 110.684 25.0863 111.304 25.3449C111.928 25.6004 112.459 25.9649 112.898 26.4386C113.341 26.9091 113.682 27.4777 113.922 28.1445C114.162 28.8082 114.282 29.5482 114.282 30.3646C114.282 30.4892 114.278 30.6154 114.272 30.7432C114.266 30.8678 114.257 30.9956 114.244 31.1264H105.817V29.3971H112.767L111.632 31.0984C111.644 30.9769 111.652 30.8569 111.655 30.7385C111.661 30.617 111.664 30.4986 111.664 30.3833C111.664 29.8536 111.611 29.3893 111.505 28.9905C111.403 28.5885 111.25 28.252 111.047 27.9809C110.845 27.7098 110.592 27.5058 110.29 27.3687C109.991 27.2284 109.644 27.1583 109.248 27.1583C108.855 27.1583 108.505 27.2269 108.196 27.364C107.888 27.5011 107.626 27.7005 107.411 27.9622C107.199 28.2209 107.037 28.5387 106.925 28.9157C106.813 29.2927 106.757 29.7196 106.757 30.1963V30.5749Z" fill="white"/>
<path fill-rule="evenodd" clip-rule="evenodd" d="M1.00699 7.9744C3.04368 4.72257 9.87222 3.58275 17.8292 5.41248C17.1649 6.1159 16.6577 6.96739 16.2743 7.77369C14.6606 7.45068 13.1139 7.26189 11.6732 7.19882C9.24837 7.09271 7.22175 7.34432 5.72354 7.82608C4.18737 8.32008 3.48038 8.95962 3.21427 9.41598C3.21334 9.41757 3.21251 9.4192 3.21159 9.4208C1.43715 14.4877 13.947 29.2505 16.2182 22.5591C16.3925 22.0455 16.4174 21.6497 16.5693 21.117C16.761 20.4449 17.0189 19.693 17.3594 18.9939C17.6925 18.3099 18.1482 17.5859 18.7769 17.0563C19.494 16.4511 20.4088 16.132 21.346 16.161C22.2833 16.1903 23.1779 16.5653 23.8566 17.2151C23.862 17.2202 23.8674 17.2254 23.8727 17.2306C25.2985 18.6425 25.2774 20.9021 24.0579 22.352C23.5298 22.9824 22.808 23.4394 22.1259 23.7735C21.4071 24.1256 20.7624 24.1969 19.9461 24.5828C10.4742 29.0612 36.4372 37.0471 42.5106 32.4495C42.9326 32.13 42.9939 31.5887 42.9532 31.1897C42.9222 30.9693 42.8811 30.7293 42.826 30.4691C42.4917 28.892 41.742 26.9267 40.53 24.7899C39.7199 23.3618 38.7198 21.888 37.5356 20.4315C37.6084 20.0907 37.6569 19.7531 37.6872 19.428C37.7804 18.4245 37.7172 17.4094 37.6054 16.5296C44.1582 23.3887 46.8159 31.3458 45.2062 34.4219L45.1535 34.5178C42.8474 38.5202 28.8414 39.5199 16.7765 32.4896L16.4897 32.3209C4.26556 25.0493 -1.93208 13.0115 0.93804 8.08879L1.00699 7.9744ZM21.265 18.7809C20.9714 18.7719 20.6844 18.8721 20.4595 19.0621L20.4582 19.0634C20.2271 19.2581 19.966 19.6149 19.708 20.1445C19.4574 20.659 19.2492 21.2538 19.0826 21.8378C19.0551 21.9343 19.0292 22.0299 19.0043 22.1238C19.098 22.0988 19.1935 22.0731 19.2898 22.0455C19.8721 21.8784 20.4654 21.6698 20.9785 21.4185C21.5067 21.1598 21.8625 20.8979 22.0567 20.6662L22.0593 20.6629C22.4629 20.184 22.4209 19.4854 22.0428 19.103C21.8314 18.9048 21.555 18.79 21.265 18.7809Z" fill="white"/>
<path fill-rule="evenodd" clip-rule="evenodd" d="M39.6911 0.0769692C40.4097 0.0814379 40.9901 0.666959 40.9902 1.3876C40.9902 4.63358 40.0845 10.2837 34.2994 14.581C34.3918 14.9816 34.4929 15.4883 34.5643 16.0439C34.649 16.7033 34.6973 17.4669 34.6273 18.2216C34.5584 18.9649 34.3661 19.7968 33.8911 20.5114L33.89 20.513C33.0804 21.7267 31.567 22.4177 30.5389 22.7916C29.9812 22.9945 29.4665 23.1382 29.0922 23.2313C28.9041 23.2781 28.7488 23.3127 28.6384 23.336C28.5832 23.3477 28.5389 23.3566 28.5072 23.3628C28.4913 23.3659 28.4784 23.3685 28.4689 23.3703C28.4642 23.3711 28.4602 23.3718 28.4572 23.3724L28.4532 23.3732L28.451 23.3737C28.0698 23.4431 27.6768 23.3392 27.3793 23.0902C27.082 22.8412 26.9101 22.4725 26.91 22.0839V16.8778L24.2359 14.1961H19.0441C18.6567 14.1961 18.2892 14.0238 18.0409 13.7255C17.7926 13.4272 17.6889 13.0337 17.7581 12.6514L17.7594 12.6447C17.76 12.6417 17.7607 12.6376 17.7616 12.633C17.7634 12.6235 17.766 12.6106 17.7691 12.5947C17.7753 12.5629 17.7842 12.5185 17.7958 12.4632C17.8191 12.3526 17.8536 12.1969 17.9003 12.0084C17.9931 11.633 18.1363 11.1164 18.3386 10.5572C18.7116 9.52616 19.4006 8.00879 20.6108 7.19695L20.6127 7.19588C21.3253 6.71951 22.1546 6.52655 22.8958 6.45745C23.6484 6.38731 24.41 6.43582 25.0676 6.52079C25.6269 6.59308 26.1367 6.69521 26.538 6.78859C27.9321 4.84345 29.744 3.23061 31.8447 2.07204L32.0708 1.94964C34.4164 0.704469 37.0344 0.0604759 39.6911 0.0769692ZM31.9267 16.068C31.1455 16.492 30.3436 16.8771 29.5241 17.2217V20.3708C29.5649 20.3566 29.6062 20.3423 29.6476 20.3273C30.6345 19.9683 31.4143 19.5092 31.7169 19.0557C31.8604 18.8389 31.9775 18.4869 32.0245 17.9792C32.0707 17.4814 32.0416 16.924 31.9716 16.3791C31.958 16.2735 31.9426 16.1694 31.9267 16.068ZM38.3131 2.75916C36.5613 2.92674 34.8554 3.43746 33.2937 4.26648L33.1045 4.36884C31.0923 5.47863 29.3965 7.08639 28.1787 9.03889C28.1763 9.04279 28.1737 9.04676 28.1712 9.05065C27.4555 10.1714 26.8347 11.35 26.3143 12.5734L28.5315 14.7967C29.7665 14.276 30.9571 13.6539 32.0905 12.9363C36.7775 9.77794 38.0442 5.67513 38.3131 2.75916ZM24.7335 9.12067C24.19 9.05043 23.6342 9.02148 23.1377 9.06775C22.6314 9.11496 22.2803 9.23176 22.0641 9.37563C21.6118 9.67915 21.1543 10.4616 20.7963 11.4511C20.7813 11.4926 20.7667 11.534 20.7524 11.5749H23.8973C24.2454 10.7536 24.6345 9.95032 25.063 9.16851C24.9557 9.15139 24.8456 9.13515 24.7335 9.12067Z" fill="white"/>
</svg>
