<svg width="534" height="170" viewBox="0 0 534 170" fill="none" xmlns="http://www.w3.org/2000/svg">
<path d="M238.925 96.1221H228.769L243.942 52.1109H257.576L272.534 96.1221H262.162L249.743 55.2655H251.559L238.925 96.1221ZM237.694 86.4427V78.5022H264.716V86.4427H237.694Z" fill="black"/>
<path d="M287.531 52.1109V96.1221H277.805V52.1109H287.531Z" fill="black"/>
<path d="M307.828 52.1109H317.553V88.6125L316.815 87.843H337.559V96.1221H307.828V52.1109Z" fill="black"/>
<path d="M344.311 74.6243C344.311 72.5725 344.685 70.7207 345.434 69.069C346.193 67.4173 347.276 66.017 348.681 64.868C350.097 63.7087 351.81 62.8213 353.821 62.2057C355.842 61.5799 358.109 61.267 360.623 61.267C363.218 61.267 365.532 61.6005 367.563 62.2673C369.604 62.9341 371.328 63.8985 372.733 65.1603C374.149 66.4119 375.231 67.9508 375.98 69.7769C376.729 71.603 377.104 73.6753 377.104 75.9939V96.1221H367.886V87.2583H367.932C367.686 88.2637 367.347 89.2075 366.916 90.0898C366.486 90.9618 365.973 91.762 365.378 92.4904C364.783 93.2085 364.106 93.8497 363.346 94.4139C362.597 94.9782 361.782 95.4604 360.9 95.8605C360.017 96.2503 359.068 96.5427 358.053 96.7376C357.037 96.9428 355.975 97.0454 354.867 97.0454C353.133 97.0454 351.554 96.8043 350.128 96.3221C348.712 95.8502 347.496 95.1782 346.481 94.3062C345.475 93.4239 344.695 92.3673 344.141 91.1362C343.587 89.8948 343.31 88.5253 343.31 87.0274C343.31 85.4168 343.629 83.9805 344.265 82.7187C344.911 81.4465 345.834 80.3693 347.035 79.4871C348.245 78.6048 349.722 77.9328 351.466 77.4712C353.21 77.0095 355.19 76.7787 357.406 76.7787H368.117V82.3801H358.36C357.406 82.3801 356.565 82.4622 355.837 82.6263C355.119 82.7802 354.513 83.0213 354.021 83.3496C353.528 83.6676 353.154 84.0626 352.898 84.5345C352.651 85.0064 352.528 85.5553 352.528 86.1811C352.528 86.8171 352.662 87.3865 352.928 87.8892C353.195 88.3816 353.58 88.7971 354.082 89.1357C354.585 89.4742 355.206 89.7358 355.944 89.9205C356.693 90.0949 357.545 90.1821 358.499 90.1821C359.402 90.1821 360.258 90.1051 361.069 89.9513C361.879 89.7974 362.633 89.5768 363.331 89.2896C364.029 89.0023 364.654 88.6586 365.208 88.2585C365.773 87.8482 366.255 87.3916 366.655 86.8889C367.055 86.376 367.358 85.8271 367.563 85.2424C367.778 84.6576 367.886 84.0369 367.886 83.3804V75.9939C367.886 74.8243 367.717 73.7779 367.378 72.8546C367.04 71.9313 366.552 71.1516 365.916 70.5156C365.28 69.8692 364.495 69.3768 363.562 69.0383C362.638 68.6997 361.587 68.5304 360.407 68.5304C359.217 68.5304 358.186 68.6741 357.314 68.9613C356.452 69.2383 355.739 69.6384 355.175 70.1616C354.611 70.6848 354.19 71.326 353.913 72.0852C353.636 72.8341 353.498 73.6805 353.498 74.6243H344.311Z" fill="black"/>
<path d="M407.016 79.9949V62.1904H416.234V96.1221H407.016V85.7502L407.062 85.704C406.713 87.5404 406.19 89.1664 405.493 90.5822C404.805 91.9877 403.954 93.1675 402.938 94.1216C401.922 95.0756 400.758 95.7989 399.445 96.2913C398.132 96.794 396.68 97.0454 395.09 97.0454C393.264 97.0454 391.648 96.7171 390.243 96.0605C388.837 95.4039 387.662 94.4345 386.719 93.1521C385.775 91.8697 385.057 90.2898 384.564 88.4124C384.072 86.5247 383.826 84.355 383.826 81.9031V62.1904H393.043V80.3642C393.043 81.8107 393.177 83.0777 393.443 84.1652C393.72 85.2424 394.131 86.14 394.674 86.8582C395.228 87.5763 395.916 88.1149 396.737 88.474C397.568 88.833 398.537 89.0126 399.645 89.0126C400.425 89.0126 401.148 88.9254 401.815 88.751C402.482 88.5766 403.087 88.3201 403.631 87.9815C404.185 87.6327 404.672 87.207 405.093 86.7043C405.513 86.1913 405.862 85.6014 406.139 84.9346C406.426 84.2575 406.642 83.5086 406.785 82.6879C406.939 81.8672 407.016 80.9695 407.016 79.9949Z" fill="black"/>
<path d="M432.462 78.3175V96.1221H423.244V62.1904H432.462V72.5622L432.416 72.6084C432.765 70.772 433.283 69.1511 433.97 67.7456C434.668 66.3299 435.524 65.145 436.54 64.1909C437.556 63.2368 438.72 62.5135 440.033 62.0211C441.346 61.5184 442.798 61.267 444.388 61.267C446.214 61.267 447.83 61.5953 449.235 62.2519C450.641 62.9085 451.816 63.878 452.759 65.1603C453.703 66.4427 454.421 68.0277 454.914 69.9154C455.406 71.7928 455.653 73.9575 455.653 76.4094V96.1221H446.435V77.9482C446.435 76.5017 446.296 75.2398 446.019 74.1626C445.753 73.0752 445.342 72.1724 444.788 71.4543C444.244 70.7361 443.557 70.1975 442.726 69.8385C441.905 69.4794 440.941 69.2999 439.833 69.2999C439.053 69.2999 438.33 69.3871 437.663 69.5615C436.996 69.7359 436.386 69.9975 435.832 70.3463C435.288 70.6848 434.806 71.1106 434.386 71.6235C433.965 72.1262 433.611 72.7161 433.324 73.3932C433.047 74.06 432.831 74.8038 432.677 75.6245C432.534 76.4453 432.462 77.3429 432.462 78.3175Z" fill="black"/>
<path d="M471.08 79.1485C471.08 80.7181 471.26 82.1185 471.619 83.3496C471.978 84.5704 472.496 85.6014 473.173 86.4427C473.85 87.2839 474.681 87.9251 475.666 88.3662C476.651 88.7971 477.769 89.0126 479.021 89.0126C480.067 89.0126 480.991 88.8587 481.791 88.5509C482.601 88.2431 483.294 87.8123 483.868 87.2583C484.453 86.694 484.93 86.0272 485.299 85.2578C485.669 84.4883 485.941 83.642 486.115 82.7187H495.302C495.025 84.8217 494.445 86.7504 493.563 88.5047C492.691 90.259 491.552 91.7671 490.147 93.029C488.752 94.2908 487.115 95.2757 485.238 95.9836C483.36 96.6914 481.283 97.0454 479.006 97.0454C477.313 97.0454 475.712 96.8556 474.204 96.476C472.696 96.0964 471.306 95.5424 470.034 94.814C468.762 94.0856 467.618 93.2034 466.602 92.1672C465.587 91.1208 464.72 89.9359 464.002 88.6125C463.294 87.2788 462.75 85.822 462.371 84.2421C461.991 82.652 461.801 80.9541 461.801 79.1485C461.801 77.3429 461.991 75.6502 462.371 74.0703C462.75 72.4802 463.294 71.0234 464.002 69.7C464.72 68.3765 465.587 67.1916 466.602 66.1452C467.618 65.0988 468.762 64.2165 470.034 63.4984C471.306 62.77 472.696 62.216 474.204 61.8364C475.712 61.4568 477.313 61.267 479.006 61.267C481.283 61.267 483.36 61.621 485.238 62.3289C487.115 63.0367 488.752 64.0216 490.147 65.2834C491.552 66.5453 492.691 68.0534 493.563 69.8077C494.445 71.562 495.025 73.4907 495.302 75.5938H486.115C485.941 74.6705 485.669 73.8241 485.299 73.0547C484.93 72.275 484.453 71.6081 483.868 71.0541C483.294 70.5002 482.601 70.0693 481.791 69.7615C480.991 69.4537 480.067 69.2999 479.021 69.2999C477.769 69.2999 476.651 69.5204 475.666 69.9616C474.681 70.3924 473.85 71.0285 473.173 71.8697C472.496 72.7007 471.978 73.7318 471.619 74.9628C471.26 76.1837 471.08 77.5789 471.08 79.1485Z" fill="black"/>
<path d="M510.811 78.3175V96.1221H501.594V50.572H510.811V72.5622L510.765 72.6084C511.114 70.772 511.632 69.1511 512.319 67.7456C513.017 66.3299 513.874 65.145 514.889 64.1909C515.905 63.2368 517.069 62.5135 518.382 62.0211C519.696 61.5184 521.147 61.267 522.737 61.267C524.563 61.267 526.179 61.5953 527.585 62.2519C528.99 62.9085 530.165 63.878 531.109 65.1603C532.053 66.4427 532.771 68.0277 533.263 69.9154C533.756 71.7928 534.002 73.9575 534.002 76.4094V96.1221H524.784V77.9482C524.784 76.5017 524.645 75.2398 524.368 74.1626C524.102 73.0752 523.691 72.1724 523.137 71.4543C522.594 70.7361 521.906 70.1975 521.075 69.8385C520.255 69.4794 519.29 69.2999 518.182 69.2999C517.403 69.2999 516.679 69.3871 516.013 69.5615C515.346 69.7359 514.735 69.9975 514.181 70.3463C513.638 70.6848 513.155 71.1106 512.735 71.6235C512.314 72.1262 511.96 72.7161 511.673 73.3932C511.396 74.06 511.181 74.8038 511.027 75.6245C510.883 76.4453 510.811 77.3429 510.811 78.3175Z" fill="black"/>
<path d="M249.097 113.36C251.918 113.36 254.457 113.699 256.714 114.376C258.981 115.053 260.905 116.033 262.485 117.315C264.075 118.587 265.296 120.141 266.147 121.978C266.999 123.804 267.425 125.866 267.425 128.164H258.099C258.099 127.107 257.879 126.153 257.438 125.302C257.007 124.45 256.391 123.727 255.591 123.132C254.791 122.537 253.826 122.08 252.698 121.762C251.58 121.434 250.338 121.27 248.974 121.27C248.204 121.27 247.45 121.321 246.712 121.424C245.983 121.526 245.291 121.68 244.634 121.885C243.978 122.091 243.367 122.347 242.803 122.655C242.249 122.963 241.772 123.322 241.372 123.732C240.972 124.142 240.654 124.609 240.418 125.132C240.192 125.645 240.079 126.21 240.079 126.825C240.079 127.41 240.177 127.918 240.372 128.349C240.567 128.78 240.849 129.154 241.218 129.472C241.598 129.79 242.064 130.067 242.618 130.303C243.172 130.529 243.819 130.729 244.557 130.903C245.296 131.078 246.117 131.242 247.019 131.396C247.922 131.549 248.912 131.703 249.989 131.857L251.775 132.119C253.006 132.293 254.283 132.498 255.606 132.734C256.93 132.96 258.222 133.268 259.484 133.658C260.756 134.037 261.962 134.525 263.1 135.12C264.239 135.704 265.239 136.448 266.101 137.351C266.963 138.243 267.645 139.326 268.148 140.598C268.651 141.87 268.902 143.373 268.902 145.107C268.902 147.425 268.44 149.462 267.517 151.216C266.604 152.97 265.301 154.442 263.608 155.633C261.926 156.812 259.889 157.705 257.499 158.31C255.109 158.915 252.441 159.218 249.497 159.218C246.327 159.218 243.511 158.874 241.049 158.187C238.597 157.5 236.53 156.505 234.847 155.202C233.175 153.899 231.903 152.309 231.031 150.431C230.169 148.544 229.738 146.405 229.738 144.014H239.064C239.064 145.153 239.305 146.174 239.787 147.076C240.269 147.979 240.956 148.744 241.849 149.369C242.741 149.995 243.824 150.477 245.096 150.816C246.378 151.144 247.82 151.308 249.42 151.308C250.795 151.308 252.077 151.185 253.267 150.939C254.468 150.683 255.509 150.308 256.391 149.816C257.284 149.313 257.986 148.687 258.499 147.938C259.012 147.189 259.269 146.312 259.269 145.307C259.269 144.671 259.171 144.122 258.976 143.66C258.781 143.188 258.494 142.783 258.115 142.445C257.745 142.096 257.284 141.803 256.73 141.567C256.186 141.331 255.555 141.131 254.837 140.967C254.129 140.793 253.344 140.639 252.482 140.506C251.621 140.362 250.687 140.218 249.682 140.075L247.358 139.736C246.147 139.572 244.886 139.382 243.572 139.167C242.27 138.951 240.992 138.669 239.741 138.32C238.489 137.961 237.299 137.505 236.171 136.951C235.052 136.387 234.067 135.674 233.216 134.812C232.375 133.95 231.703 132.914 231.2 131.703C230.697 130.493 230.446 129.051 230.446 127.379C230.446 125.861 230.661 124.46 231.092 123.178C231.523 121.885 232.134 120.721 232.924 119.685C233.724 118.638 234.683 117.725 235.801 116.946C236.93 116.156 238.181 115.499 239.556 114.976C240.941 114.443 242.434 114.042 244.034 113.776C245.645 113.499 247.332 113.36 249.097 113.36Z" fill="black"/>
<path d="M284.164 124.363V134.827L284.118 134.858C284.487 133.052 285.016 131.442 285.703 130.026C286.39 128.61 287.216 127.415 288.18 126.44C289.155 125.466 290.263 124.722 291.504 124.209C292.756 123.696 294.115 123.44 295.582 123.44C296.926 123.44 298.198 123.64 299.399 124.04C300.599 124.43 301.707 124.994 302.723 125.733C303.738 126.471 304.651 127.374 305.462 128.441C306.282 129.498 306.975 130.688 307.539 132.011C308.103 133.335 308.534 134.781 308.832 136.351C309.14 137.91 309.293 139.567 309.293 141.321C309.293 143.075 309.14 144.737 308.832 146.307C308.534 147.866 308.103 149.313 307.539 150.647C306.975 151.97 306.282 153.16 305.462 154.217C304.651 155.273 303.738 156.176 302.723 156.925C301.707 157.664 300.599 158.228 299.399 158.618C298.198 159.018 296.926 159.218 295.582 159.218C294.115 159.218 292.756 158.962 291.504 158.449C290.263 157.936 289.155 157.192 288.18 156.217C287.216 155.243 286.39 154.047 285.703 152.632C285.016 151.206 284.487 149.59 284.118 147.784L284.164 147.831V169.928H274.946V124.363H284.164ZM284.164 141.321C284.164 142.378 284.241 143.358 284.395 144.26C284.559 145.163 284.795 145.984 285.103 146.723C285.41 147.461 285.79 148.118 286.241 148.692C286.703 149.257 287.231 149.734 287.826 150.123C288.421 150.503 289.078 150.79 289.796 150.985C290.525 151.18 291.309 151.278 292.151 151.278C293.443 151.278 294.577 151.067 295.552 150.647C296.536 150.226 297.357 149.595 298.014 148.754C298.67 147.913 299.168 146.871 299.506 145.63C299.845 144.389 300.014 142.952 300.014 141.321C300.014 139.69 299.845 138.254 299.506 137.012C299.178 135.771 298.681 134.735 298.014 133.904C297.357 133.063 296.536 132.432 295.552 132.011C294.577 131.591 293.443 131.38 292.151 131.38C291.309 131.38 290.525 131.478 289.796 131.673C289.078 131.867 288.421 132.16 287.826 132.55C287.231 132.929 286.703 133.401 286.241 133.965C285.79 134.53 285.41 135.181 285.103 135.92C284.795 136.658 284.559 137.479 284.395 138.382C284.241 139.285 284.164 140.265 284.164 141.321Z" fill="black"/>
<path d="M315.37 136.797C315.37 134.745 315.744 132.893 316.493 131.242C317.253 129.59 318.335 128.19 319.74 127.041C321.156 125.881 322.869 124.994 324.88 124.378C326.901 123.753 329.168 123.44 331.682 123.44C334.277 123.44 336.591 123.773 338.622 124.44C340.664 125.107 342.387 126.071 343.793 127.333C345.208 128.585 346.291 130.123 347.04 131.95C347.789 133.776 348.163 135.848 348.163 138.167V158.295H338.945V149.431H338.991C338.745 150.436 338.407 151.38 337.976 152.262C337.545 153.134 337.032 153.935 336.437 154.663C335.842 155.381 335.165 156.022 334.406 156.587C333.657 157.151 332.841 157.633 331.959 158.033C331.077 158.423 330.128 158.715 329.112 158.91C328.096 159.115 327.035 159.218 325.927 159.218C324.193 159.218 322.613 158.977 321.187 158.495C319.771 158.023 318.555 157.351 317.54 156.479C316.534 155.597 315.755 154.54 315.201 153.309C314.647 152.068 314.37 150.698 314.37 149.2C314.37 147.589 314.688 146.153 315.324 144.891C315.97 143.619 316.893 142.542 318.094 141.66C319.304 140.777 320.782 140.105 322.526 139.644C324.27 139.182 326.25 138.951 328.466 138.951H339.176V144.553H329.42C328.466 144.553 327.624 144.635 326.896 144.799C326.178 144.953 325.573 145.194 325.08 145.522C324.588 145.84 324.213 146.235 323.957 146.707C323.711 147.179 323.587 147.728 323.587 148.354C323.587 148.99 323.721 149.559 323.988 150.062C324.254 150.554 324.639 150.97 325.142 151.308C325.644 151.647 326.265 151.908 327.004 152.093C327.753 152.268 328.604 152.355 329.558 152.355C330.461 152.355 331.318 152.278 332.128 152.124C332.939 151.97 333.693 151.749 334.39 151.462C335.088 151.175 335.714 150.831 336.268 150.431C336.832 150.021 337.314 149.564 337.714 149.062C338.114 148.549 338.417 148 338.622 147.415C338.838 146.83 338.945 146.21 338.945 145.553V138.167C338.945 136.997 338.776 135.951 338.437 135.027C338.099 134.104 337.612 133.324 336.976 132.688C336.339 132.042 335.555 131.549 334.621 131.211C333.698 130.872 332.646 130.703 331.466 130.703C330.276 130.703 329.245 130.847 328.373 131.134C327.512 131.411 326.799 131.811 326.234 132.334C325.67 132.857 325.249 133.499 324.972 134.258C324.695 135.007 324.557 135.853 324.557 136.797H315.37Z" fill="black"/>
<path d="M363.61 141.321C363.61 142.891 363.79 144.291 364.149 145.522C364.508 146.743 365.026 147.774 365.703 148.615C366.38 149.457 367.211 150.098 368.196 150.539C369.181 150.97 370.299 151.185 371.551 151.185C372.597 151.185 373.52 151.031 374.321 150.724C375.131 150.416 375.824 149.985 376.398 149.431C376.983 148.867 377.46 148.2 377.829 147.43C378.198 146.661 378.47 145.815 378.645 144.891H387.832C387.555 146.994 386.975 148.923 386.093 150.677C385.221 152.432 384.082 153.94 382.677 155.202C381.281 156.463 379.645 157.448 377.768 158.156C375.89 158.864 373.813 159.218 371.535 159.218C369.843 159.218 368.242 159.028 366.734 158.649C365.226 158.269 363.836 157.715 362.564 156.987C361.292 156.258 360.148 155.376 359.132 154.34C358.116 153.293 357.25 152.109 356.531 150.785C355.824 149.451 355.28 147.995 354.9 146.415C354.521 144.825 354.331 143.127 354.331 141.321C354.331 139.516 354.521 137.823 354.9 136.243C355.28 134.653 355.824 133.196 356.531 131.873C357.25 130.549 358.116 129.364 359.132 128.318C360.148 127.271 361.292 126.389 362.564 125.671C363.836 124.943 365.226 124.389 366.734 124.009C368.242 123.63 369.843 123.44 371.535 123.44C373.813 123.44 375.89 123.794 377.768 124.502C379.645 125.209 381.281 126.194 382.677 127.456C384.082 128.718 385.221 130.226 386.093 131.98C386.975 133.735 387.555 135.663 387.832 137.766H378.645C378.47 136.843 378.198 135.997 377.829 135.227C377.46 134.448 376.983 133.781 376.398 133.227C375.824 132.673 375.131 132.242 374.321 131.934C373.52 131.626 372.597 131.473 371.551 131.473C370.299 131.473 369.181 131.693 368.196 132.134C367.211 132.565 366.38 133.201 365.703 134.042C365.026 134.873 364.508 135.904 364.149 137.136C363.79 138.356 363.61 139.752 363.61 141.321Z" fill="black"/>
<path d="M402.218 141.937C402.218 143.476 402.412 144.861 402.802 146.092C403.202 147.312 403.772 148.349 404.51 149.2C405.249 150.052 406.147 150.708 407.203 151.17C408.27 151.621 409.476 151.847 410.82 151.847C411.712 151.847 412.533 151.744 413.282 151.539C414.041 151.324 414.723 151.006 415.329 150.585C415.944 150.154 416.488 149.626 416.96 149C417.442 148.364 417.847 147.63 418.175 146.799H426.839C426.378 148.728 425.654 150.462 424.669 152.001C423.685 153.54 422.489 154.843 421.084 155.91C419.689 156.976 418.099 157.792 416.313 158.356C414.539 158.931 412.62 159.218 410.558 159.218C407.993 159.218 405.659 158.787 403.556 157.925C401.453 157.064 399.648 155.848 398.14 154.278C396.642 152.698 395.477 150.811 394.646 148.615C393.826 146.41 393.415 143.968 393.415 141.29C393.415 138.633 393.821 136.207 394.631 134.012C395.452 131.816 396.606 129.939 398.093 128.379C399.581 126.81 401.366 125.594 403.449 124.732C405.531 123.871 407.839 123.44 410.373 123.44C412.877 123.44 415.149 123.865 417.191 124.717C419.242 125.558 420.992 126.759 422.438 128.318C423.895 129.867 425.018 131.739 425.808 133.935C426.598 136.12 426.993 138.556 426.993 141.244C426.993 141.655 426.983 142.07 426.962 142.491C426.942 142.901 426.911 143.322 426.87 143.753H399.124V138.059H422.007L418.268 143.66C418.309 143.26 418.334 142.865 418.345 142.475C418.365 142.075 418.376 141.685 418.376 141.306C418.376 139.562 418.201 138.033 417.852 136.72C417.514 135.397 417.011 134.289 416.344 133.396C415.677 132.504 414.846 131.832 413.851 131.38C412.866 130.919 411.723 130.688 410.42 130.688C409.127 130.688 407.973 130.913 406.957 131.365C405.942 131.816 405.08 132.473 404.372 133.335C403.674 134.186 403.141 135.232 402.772 136.474C402.402 137.715 402.218 139.121 402.218 140.69V141.937Z" fill="black"/>
<path fill-rule="evenodd" clip-rule="evenodd" d="M27.0181 59.1794C34.4603 47.2971 59.4119 43.1321 88.4869 49.818C86.0596 52.3883 84.2062 55.4997 82.8052 58.446C76.9088 57.2657 71.257 56.5758 65.9927 56.3454C57.1323 55.9576 49.727 56.877 44.2525 58.6374C38.6393 60.4425 36.0559 62.7794 35.0836 64.4469C35.0802 64.4527 35.0772 64.4587 35.0738 64.4645C28.5899 82.9792 74.3013 136.923 82.6002 112.472C83.2372 110.595 83.3282 109.149 83.8834 107.203C84.5838 104.747 85.5259 101.999 86.7701 99.445C87.9876 96.9455 89.6525 94.3 91.9498 92.3649C94.5702 90.1533 97.9127 88.9876 101.337 89.0934C104.762 89.2004 108.031 90.5709 110.511 92.945C110.531 92.9636 110.551 92.9827 110.57 93.0016C115.78 98.1608 115.703 106.418 111.247 111.715C109.317 114.019 106.68 115.689 104.187 116.91C101.561 118.196 99.2047 118.457 96.2222 119.867C61.6115 136.231 156.481 165.412 178.673 148.612C180.215 147.445 180.439 145.467 180.291 144.008C180.177 143.203 180.027 142.326 179.826 141.376C178.604 135.613 175.865 128.432 171.436 120.624C168.476 115.405 164.822 110.02 160.495 104.698C160.761 103.453 160.938 102.219 161.048 101.031C161.389 97.3644 161.158 93.655 160.75 90.4401C184.694 115.503 194.405 144.579 188.523 155.819L188.331 156.17C179.904 170.795 128.726 174.447 84.6402 148.758L83.5924 148.142C38.925 121.571 16.2787 77.5851 26.7662 59.5973L27.0181 59.1794ZM101.042 98.6667C99.9685 98.6338 98.92 98.9998 98.0982 99.694L98.0933 99.6989C97.2487 100.41 96.2947 101.714 95.3521 103.649C94.4363 105.529 93.6756 107.703 93.067 109.837C92.9664 110.189 92.8717 110.538 92.7808 110.882C93.1232 110.79 93.4721 110.696 93.8238 110.595C95.9518 109.985 98.1196 109.223 99.9947 108.304C101.924 107.359 103.225 106.402 103.934 105.555L103.944 105.544C105.419 103.794 105.265 101.241 103.883 99.8434C103.111 99.1193 102.101 98.6998 101.042 98.6667Z" fill="black"/>
<path fill-rule="evenodd" clip-rule="evenodd" d="M168.371 30.3219C170.997 30.3383 173.117 32.4778 173.118 35.111C173.118 46.9719 169.809 67.6177 148.67 83.32C149.007 84.7838 149.376 86.6354 149.637 88.6657C149.947 91.0749 150.123 93.8652 149.868 96.6227C149.616 99.339 148.913 102.379 147.177 104.99L147.173 104.996C144.215 109.431 138.685 111.955 134.928 113.322C132.891 114.063 131.01 114.588 129.642 114.928C128.955 115.099 128.387 115.226 127.984 115.311C127.782 115.354 127.62 115.386 127.504 115.409C127.447 115.42 127.399 115.43 127.365 115.436C127.348 115.439 127.333 115.442 127.322 115.444L127.307 115.447L127.299 115.449C125.906 115.702 124.47 115.323 123.383 114.413C122.297 113.503 121.669 112.156 121.669 110.736V91.7126L111.897 81.9137H92.9263C91.5105 81.9136 90.1677 81.2839 89.2603 80.194C88.353 79.104 87.9742 77.6662 88.2271 76.2692L88.232 76.2448C88.2341 76.2336 88.2366 76.2189 88.2398 76.2018C88.2463 76.1672 88.2559 76.1201 88.2672 76.0622C88.2898 75.946 88.3223 75.7837 88.3648 75.5817C88.4499 75.1772 88.5762 74.6085 88.7467 73.9196C89.086 72.5479 89.609 70.6605 90.3482 68.6169C91.711 64.8495 94.2289 59.305 98.6509 56.3385L98.6578 56.3346C101.262 54.5939 104.292 53.8889 107.001 53.6364C109.751 53.3801 112.533 53.5573 114.936 53.8678C116.98 54.132 118.843 54.5052 120.309 54.8463C125.403 47.7388 132.024 41.8454 139.7 37.612L140.526 37.1647C149.097 32.6148 158.663 30.2617 168.371 30.3219ZM140 88.7536C137.145 90.3027 134.215 91.71 131.22 92.9694V104.476C131.369 104.424 131.52 104.372 131.671 104.317C135.278 103.005 138.127 101.328 139.233 99.6706C139.757 98.8786 140.185 97.5922 140.357 95.737C140.526 93.9181 140.42 91.8816 140.164 89.8903C140.114 89.5044 140.058 89.1241 140 88.7536ZM163.336 40.1227C156.935 40.7351 150.701 42.6012 144.995 45.6305L144.303 46.0045C136.95 50.0597 130.754 55.9345 126.304 63.069C126.295 63.0833 126.286 63.0978 126.277 63.112C123.662 67.2073 121.393 71.5138 119.492 75.984L127.593 84.1081C132.106 82.2057 136.456 79.9325 140.598 77.3102C157.725 65.7695 162.353 50.7778 163.336 40.1227ZM113.715 63.3678C111.729 63.1112 109.698 63.0054 107.884 63.1745C106.034 63.347 104.751 63.7738 103.961 64.2995C102.309 65.4085 100.637 68.2675 99.3287 71.8835C99.2739 72.0348 99.2205 72.1862 99.1685 72.3356H110.66C111.932 69.3345 113.354 66.3994 114.92 63.5426C114.527 63.4801 114.125 63.4208 113.715 63.3678Z" fill="black"/>
<path d="M170.57 72.6592C193.267 83.2575 207.791 97.3572 208.44 106.582C209.6 123.101 162.169 155.774 104.756 156.094L103.412 156.096C47.0379 155.941 -0.258983 126.374 0.501351 108.171L0.527718 107.74C1.07225 101.306 6.94955 93.3164 16.8373 85.6475C17.6661 89.0165 18.8491 92.2105 20.0238 94.6465C18.4421 95.981 17.0211 97.3002 15.7699 98.5908C10.9916 103.52 9.62303 107.005 9.49647 108.499C9.44431 109.119 9.90173 111.972 14.5707 116.822C18.9101 121.33 25.7163 126.291 34.6576 130.903C52.4993 140.108 77.5164 147.245 104.705 147.094C131.792 146.943 156.554 139.137 174.263 129.506C183.132 124.682 189.935 119.562 194.313 115.006C196.502 112.728 197.906 110.775 198.702 109.259C199.421 107.887 199.455 107.238 199.459 107.195C199.391 106.407 198.298 103.294 193.378 98.3809C188.79 93.7995 181.939 88.7347 173.161 84.0195C170.378 82.5251 167.426 81.0789 164.32 79.7031C165.711 78.2782 167.057 76.8337 168.342 75.3721C169.127 74.4792 169.867 73.5726 170.57 72.6592Z" fill="#ED0D79"/>
<path d="M98 0L102.158 16.8422L119 21L102.158 25.1578L98 42L93.8422 25.1578L77 21L93.8422 16.8422L98 0Z" fill="#ED0D79"/>
</svg>
