<svg width="24" height="24" viewBox="0 0 24 24" fill="none" xmlns="http://www.w3.org/2000/svg">
<path d="M16.0615 10.4036L14.0001 16.9999H10.0001L7.93871 10.4036C7.35091 8.52265 7.72423 6.47299 8.93744 4.92007L11.5273 1.60512C11.7675 1.29764 12.2327 1.29764 12.4729 1.60512L15.0627 4.92007C16.2759 6.47299 16.6492 8.52265 16.0615 10.4036Z" stroke="black" stroke-width="1.5" stroke-linecap="round" stroke-linejoin="round"/>
<path d="M10 20C10 22 12 23 12 23C12 23 14 22 14 20" stroke="black" stroke-width="1.5" stroke-linecap="round" stroke-linejoin="round"/>
<path d="M8.50004 12.5C5.00004 15 7.00004 19 7.00004 19L10 17" stroke="black" stroke-width="1.5" stroke-linecap="round" stroke-linejoin="round"/>
<path d="M15.9312 12.5C19.4312 15 17.4312 19 17.4312 19L14.4312 17" stroke="black" stroke-width="1.5" stroke-linecap="round" stroke-linejoin="round"/>
<path d="M12 11C10.8954 11 10 10.1046 10 9C10 7.89543 10.8954 7 12 7C13.1046 7 14 7.89543 14 9C14 10.1046 13.1046 11 12 11Z" stroke="black" stroke-width="1.5" stroke-linecap="round" stroke-linejoin="round"/>
</svg>
