<svg width="600" height="600" viewBox="0 0 600 600" fill="none" xmlns="http://www.w3.org/2000/svg">
<g clip-path="url(#clip0_6181_306)">
<rect width="600" height="600" fill="black"/>
<g filter="url(#filter0_dddd_6181_306)">
<path d="M174.272 203.892C188.896 203.892 202.167 207.447 214.087 214.559C226.107 221.671 235.673 231.237 242.784 243.256C249.896 255.176 253.452 268.448 253.452 283.072C253.452 293.99 251.398 304.257 247.292 313.873C243.185 323.388 237.476 331.802 230.164 339.114C222.952 346.326 214.538 351.985 204.922 356.092C195.406 360.199 185.19 362.252 174.272 362.252C163.754 362.252 154.539 359.848 146.626 355.04C138.813 350.132 132.403 343.872 127.394 336.259V358.346H96.1431V181.054H127.394V229.884C132.403 222.172 138.813 215.911 146.626 211.103C154.539 206.296 163.754 203.892 174.272 203.892ZM173.971 331.902C182.685 331.902 190.649 329.699 197.86 325.291C205.072 320.884 210.782 314.974 214.989 307.562C219.296 300.15 221.449 291.987 221.449 283.072C221.449 273.957 219.296 265.693 214.989 258.281C210.681 250.869 204.922 245.009 197.71 240.702C190.498 236.295 182.585 234.091 173.971 234.091C165.257 234.091 157.594 236.295 150.983 240.702C144.372 245.109 139.214 251.019 135.508 258.431C131.802 265.843 129.949 274.057 129.949 283.072C129.949 292.087 131.802 300.3 135.508 307.712C139.214 315.125 144.372 321.034 150.983 325.442C157.594 329.749 165.257 331.902 173.971 331.902Z" fill="#26E411"/>
<path d="M343.605 362.252C329.782 362.252 317.161 358.696 305.743 351.585C294.424 344.473 285.359 334.957 278.548 323.038C271.837 311.018 268.481 297.746 268.481 283.222C268.481 272.204 270.434 261.937 274.341 252.421C278.247 242.806 283.606 234.392 290.417 227.18C297.329 219.868 305.342 214.158 314.457 210.052C323.572 205.945 333.288 203.892 343.605 203.892C357.428 203.892 369.998 207.447 381.317 214.559C392.736 221.671 401.801 231.237 408.512 243.256C415.323 255.276 418.728 268.598 418.728 283.222C418.728 294.14 416.775 304.357 412.869 313.873C408.962 323.388 403.553 331.802 396.642 339.114C389.831 346.326 381.868 351.985 372.753 356.092C363.738 360.199 354.022 362.252 343.605 362.252ZM343.605 331.001C351.918 331.001 359.381 328.797 365.992 324.39C372.602 319.983 377.811 314.173 381.617 306.961C385.524 299.649 387.477 291.736 387.477 283.222C387.477 274.508 385.474 266.495 381.467 259.183C377.561 251.87 372.302 246.061 365.691 241.754C359.08 237.347 351.718 235.143 343.605 235.143C335.391 235.143 327.929 237.347 321.218 241.754C314.607 246.161 309.348 252.021 305.442 259.333C301.636 266.645 299.733 274.608 299.733 283.222C299.733 292.137 301.736 300.2 305.743 307.412C309.749 314.624 315.058 320.383 321.669 324.69C328.38 328.897 335.692 331.001 343.605 331.001Z" fill="#26E411"/>
<path d="M521.453 239.35H489.901L489.751 358.346H458.499L458.65 239.35H434.76V208.099H458.65L458.499 160.921H489.751L489.901 208.099H521.453V239.35Z" fill="#26E411"/>
<rect x="63.1045" y="148" width="33.0544" height="33.0544" fill="#26E411"/>
<rect x="489.748" y="358.333" width="33.0544" height="33.0544" fill="#26E411"/>
<rect x="186.062" y="389.892" width="33.0544" height="33.0544" fill="#26E411"/>
<rect x="219.114" y="422.945" width="33.0544" height="33.0544" fill="#26E411"/>
<rect x="252.169" y="422.945" width="33.0544" height="33.0544" fill="#26E411"/>
<rect x="285.225" y="389.892" width="33.0544" height="33.0544" fill="#26E411"/>
</g>
</g>
<defs>
<filter id="filter0_dddd_6181_306" x="36.7045" y="123.8" width="768.798" height="655.6" filterUnits="userSpaceOnUse" color-interpolation-filters="sRGB">
<feFlood flood-opacity="0" result="BackgroundImageFix"/>
<feColorMatrix in="SourceAlpha" type="matrix" values="0 0 0 0 0 0 0 0 0 0 0 0 0 0 0 0 0 0 127 0" result="hardAlpha"/>
<feOffset dx="11" dy="13.2"/>
<feGaussianBlur stdDeviation="18.7"/>
<feColorMatrix type="matrix" values="0 0 0 0 0 0 0 0 0 0 0 0 0 0 0 0 0 0 0.14 0"/>
<feBlend mode="normal" in2="BackgroundImageFix" result="effect1_dropShadow_6181_306"/>
<feColorMatrix in="SourceAlpha" type="matrix" values="0 0 0 0 0 0 0 0 0 0 0 0 0 0 0 0 0 0 127 0" result="hardAlpha"/>
<feOffset dx="42.9" dy="52.8"/>
<feGaussianBlur stdDeviation="34.1"/>
<feColorMatrix type="matrix" values="0 0 0 0 0 0 0 0 0 0 0 0 0 0 0 0 0 0 0.12 0"/>
<feBlend mode="normal" in2="effect1_dropShadow_6181_306" result="effect2_dropShadow_6181_306"/>
<feColorMatrix in="SourceAlpha" type="matrix" values="0 0 0 0 0 0 0 0 0 0 0 0 0 0 0 0 0 0 127 0" result="hardAlpha"/>
<feOffset dx="97.9" dy="119.9"/>
<feGaussianBlur stdDeviation="46.2"/>
<feColorMatrix type="matrix" values="0 0 0 0 0 0 0 0 0 0 0 0 0 0 0 0 0 0 0.07 0"/>
<feBlend mode="normal" in2="effect2_dropShadow_6181_306" result="effect3_dropShadow_6181_306"/>
<feColorMatrix in="SourceAlpha" type="matrix" values="0 0 0 0 0 0 0 0 0 0 0 0 0 0 0 0 0 0 127 0" result="hardAlpha"/>
<feOffset dx="172.7" dy="213.4"/>
<feGaussianBlur stdDeviation="55"/>
<feColorMatrix type="matrix" values="0 0 0 0 0 0 0 0 0 0 0 0 0 0 0 0 0 0 0.02 0"/>
<feBlend mode="normal" in2="effect3_dropShadow_6181_306" result="effect4_dropShadow_6181_306"/>
<feBlend mode="normal" in="SourceGraphic" in2="effect4_dropShadow_6181_306" result="shape"/>
</filter>
<clipPath id="clip0_6181_306">
<rect width="600" height="600" fill="white"/>
</clipPath>
</defs>
</svg>
