<svg width="80" height="80" viewBox="0 0 80 80" fill="none" xmlns="http://www.w3.org/2000/svg">
<g clip-path="url(#clip0_5449_2234)">
<path d="M42.8386 44.3516C43.3508 45.1287 44.2214 46.9718 43.6069 48.1277C42.8386 49.5725 41.7828 48.0037 40.8501 48.3853C39.9173 48.7669 39.3698 50.4204 37.7586 50.4204C36.1475 50.4204 35.0397 48.2157 33.9373 48.7245C32.835 49.2333 31.7688 48.1309 32.4048 46.6046C33.0408 45.0783 34.6472 43.5095 35.1136 38.125" stroke="black" stroke-width="1.16667" stroke-linecap="round"/>
<path d="M30.4688 55.9828C30.7297 55.7622 32.2772 55.3596 36.3802 55.514C40.4832 55.6684 43.0755 55.3707 43.8587 55.2025C44.407 55.0987 45.7464 54.9533 46.7177 55.2025" stroke="black" stroke-width="1.16667" stroke-linecap="round"/>
<path d="M32.1357 55.3294C32.8567 54.9067 34.8797 53.9192 35.5036 53.8296C36.2834 53.7176 36.6731 54.2844 37.8422 54.2844C39.0113 54.2844 39.2239 53.8296 40.0033 53.8296C40.6268 53.8296 43.118 54.6092 44.1218 55.0693" stroke="black" stroke-width="1.16667" stroke-linecap="round"/>
<path d="M32.3828 55.5331C33.343 56.4172 35.7915 58.1862 37.9036 58.1893C40.5439 58.1933 43.2823 55.6874 43.8765 55.3257" stroke="black" stroke-width="1.16667" stroke-linecap="round"/>
<path d="M80.8076 69.271C75.3789 67.0214 63.9583 62.2859 61.7061 61.3413" stroke="black" stroke-width="1.66667"/>
<path d="M51.9531 69.9909C56.4483 63.0349 56.9294 55.6435 56.3238 52.7866C56.7245 53.2717 62.1705 60.4392 63.1089 61.3282C63.3559 62.3655 64.4919 71.7005 65.134 75.306C61.8149 74.1601 54.9638 71.2852 51.9531 69.9909Z" fill="white" stroke="black" stroke-width="1.66667" stroke-linejoin="round"/>
<path d="M51.936 70.2993L47.2225 75.8462V77.871L43.4111 82.0178" stroke="black" stroke-width="1.66667" stroke-linejoin="round"/>
<path d="M27.1189 76.9943L27.6788 80.1975C25.9862 79.1298 22.4657 76.7675 21.9248 75.8601C21.3838 74.9527 18.8444 71.237 17.6422 69.4926L12.1221 73.3244L17.0851 66.5115L24.4104 58.4507L27.6788 61.9428L23.9632 66.5115C23.9444 67.5247 23.9181 69.72 23.9632 70.3962C24.0083 71.0724 26.0858 75.0767 27.1189 76.9943Z" fill="white"/>
<path d="M17.0851 66.5115L24.4104 58.4507L27.6788 61.9428L23.9632 66.5115C23.9444 67.5247 23.9181 69.72 23.9632 70.3962C24.0083 71.0724 26.0858 75.0767 27.1189 76.9943L27.6788 80.1975C25.9862 79.1298 22.4657 76.7675 21.9248 75.8601C21.3838 74.9527 18.8444 71.237 17.6422 69.4926M17.0851 66.5115L12.1221 73.3244L17.6422 69.4926M17.0851 66.5115L17.6422 69.4926" stroke="black" stroke-width="1.66667" stroke-linejoin="round"/>
<path d="M17.474 66.6147C13.2842 68.2527 3.84566 72.3844 -0.390625 75.8075" stroke="black" stroke-width="1.66667" stroke-linejoin="round"/>
<path d="M19.5967 41.2533C20.1673 45.2257 20.7674 52.6096 22.6368 55.6787C24.9737 59.5151 28.8901 62.9796 30.0198 64.7872C31.1496 66.5948 34.9738 69.5454 37.9692 69.5454C40.9647 69.5454 43.5453 69.2689 47.4625 65.5361C50.5962 62.5499 53.3766 58.7311 54.375 57.195C55.2814 55.6742 57.3266 50.0845 56.9668 38.0728" stroke="black" stroke-width="1.66667" stroke-linecap="round" stroke-linejoin="round"/>
<path d="M57.0186 45.5464C58.1386 44.4995 62.3594 39.2451 60.3793 31.7446" stroke="black" stroke-width="1.66667" stroke-linecap="round" stroke-linejoin="round"/>
<path d="M20.2541 46.9003C18.6616 45.4772 12.9984 36.2046 16.8527 33.7241" stroke="black" stroke-width="1.66667" stroke-linecap="round" stroke-linejoin="round"/>
<path d="M14.8932 22.8467C13.9816 32.0162 18.2065 42.1163 19.6458 42.4821C21.9429 43.0597 20.8615 29.0173 21.0602 26.4017C21.4623 21.1073 23.6069 13.6014 28.3651 15.2098C33.1233 16.8182 36.0409 18.0098 39.0208 17.6894C45.2534 17.0192 45.161 14.7351 49.4279 16.3071C53.5591 17.8291 53.1334 20.836 54.3678 26.4017C55.6022 31.9673 54.0317 41.16 56.9886 39.5131C57.577 39.1854 65.1576 28.3452 59.3941 17.1533C53.6306 5.96139 48.8053 5.96139 46.1917 5.69332C43.578 5.42525 40.1601 2.94276 32.1851 2.13855C25.805 1.49518 24.6121 6.64958 24.8132 9.3072C21.8863 9.99971 15.8048 13.6771 14.8932 22.8467Z" fill="black"/>
<path d="M22.7529 35.8923C22.1201 34.4493 28.3355 31.3687 31.2793 32.1777C36.8356 33.7046 23.6138 35.3968 22.7529 35.8923Z" fill="black"/>
<circle cx="28.821" cy="37.0378" r="1.3737" fill="black"/>
<path d="M32.4973 36.2665C31.9652 35.9816 30.4981 35.5208 27.9416 36.0484C25.3852 36.5759 24.1772 37.7737 24.0107 38.2952" stroke="black" stroke-width="1.16667" stroke-linecap="round"/>
<path d="M42.3243 35.955C42.821 35.4362 43.8476 34.5101 46.4507 34.704C49.0538 34.8979 50.406 35.9301 50.6382 36.4259" stroke="black" stroke-width="1.16667" stroke-linecap="round"/>
<circle cx="45.8916" cy="35.8921" r="1.50391" fill="black"/>
<path d="M50.9697 34.1485C51.4686 32.6538 44.9984 30.152 42.1405 31.2257C36.7464 33.2523 50.0674 33.7334 50.9697 34.1485Z" fill="black"/>
</g>
<rect x="0.5" y="0.5" width="79" height="79" rx="7.5" stroke="black"/>
<defs>
<clipPath id="clip0_5449_2234">
<rect width="80" height="80" rx="8" fill="white"/>
</clipPath>
</defs>
</svg>
