<?xml version="1.0" encoding="UTF-8"?>
<svg width="64" height="64" viewBox="0 0 64 64" fill="none" xmlns="http://www.w3.org/2000/svg">
  <!-- Background circle -->
  <circle cx="32" cy="32" r="32" fill="#3B82F6"/>
  
  <!-- Link chain icon -->
  <path d="M20 32h8m-8 0c0-4.418 3.582-8 8-8h8c4.418 0 8 3.582 8 8s-3.582 8-8 8h-8c-4.418 0-8-3.582-8-8z" 
        stroke="white" 
        stroke-width="2" 
        stroke-linecap="round" 
        stroke-linejoin="round"/>
  <path d="m36 32 8 0m-8 0c0 4.418 3.582 8 8 8h8c4.418 0 8-3.582 8-8s-3.582-8-8-8h-8c-4.418 0-8 3.582-8 8z" 
        stroke="white" 
        stroke-width="2" 
        stroke-linecap="round" 
        stroke-linejoin="round"
        transform="translate(-8, 0)"/>
  
  <!-- Text "BL" for Backlinks List -->
  <text x="32" y="45" text-anchor="middle" fill="white" font-family="Arial, sans-serif" font-size="12" font-weight="bold">BL</text>
</svg>
