<svg width="16" height="16" viewBox="0 0 16 16" fill="none" xmlns="http://www.w3.org/2000/svg">
<path d="M9.3335 7.99824C9.3335 6.3371 7.78883 4.6665 5.90492 4.6665C5.68177 4.6665 4.94619 4.66651 4.76207 4.66651C2.86852 4.66651 1.3335 6.15818 1.3335 7.99824C1.3335 9.58384 2.47332 10.9108 4.00016 11.2474C4.2452 11.3015 4.5002 11.33 4.76207 11.33" stroke="black" stroke-width="1.5" stroke-linecap="round" stroke-linejoin="round"/>
<path d="M6.6665 7.99824C6.6665 9.65938 8.21117 11.33 10.0951 11.33C10.3182 11.33 11.0538 11.33 11.2379 11.33C13.1315 11.33 14.6665 9.83831 14.6665 7.99824C14.6665 6.41264 13.5267 5.08574 11.9998 4.74906C11.7548 4.69503 11.4998 4.6665 11.2379 4.6665" stroke="black" stroke-width="1.5" stroke-linecap="round" stroke-linejoin="round"/>
</svg>
